<svg id="my-svg" width="100%" xmlns="http://www.w3.org/2000/svg" xmlns:xlink="http://www.w3.org/1999/xlink" class="flowchart" style="max-width: 1106px; background-color: white;" viewBox="4 4 1106 942" role="graphics-document document" aria-roledescription="flowchart-elk"><style>#my-svg{font-family:"trebuchet ms",verdana,arial,sans-serif;font-size:16px;fill:#333;}@keyframes edge-animation-frame{from{stroke-dashoffset:0;}}@keyframes dash{to{stroke-dashoffset:0;}}#my-svg .edge-animation-slow{stroke-dasharray:9,5!important;stroke-dashoffset:900;animation:dash 50s linear infinite;stroke-linecap:round;}#my-svg .edge-animation-fast{stroke-dasharray:9,5!important;stroke-dashoffset:900;animation:dash 20s linear infinite;stroke-linecap:round;}#my-svg .error-icon{fill:#552222;}#my-svg .error-text{fill:#552222;stroke:#552222;}#my-svg .edge-thickness-normal{stroke-width:1px;}#my-svg .edge-thickness-thick{stroke-width:3.5px;}#my-svg .edge-pattern-solid{stroke-dasharray:0;}#my-svg .edge-thickness-invisible{stroke-width:0;fill:none;}#my-svg .edge-pattern-dashed{stroke-dasharray:3;}#my-svg .edge-pattern-dotted{stroke-dasharray:2;}#my-svg .marker{fill:#333333;stroke:#333333;}#my-svg .marker.cross{stroke:#333333;}#my-svg svg{font-family:"trebuchet ms",verdana,arial,sans-serif;font-size:16px;}#my-svg p{margin:0;}#my-svg .label{font-family:"trebuchet ms",verdana,arial,sans-serif;color:#333;}#my-svg .cluster-label text{fill:#333;}#my-svg .cluster-label span{color:#333;}#my-svg .cluster-label span p{background-color:transparent;}#my-svg .label text,#my-svg span{fill:#333;color:#333;}#my-svg .node rect,#my-svg .node circle,#my-svg .node ellipse,#my-svg .node polygon,#my-svg .node path{fill:#ECECFF;stroke:#9370DB;stroke-width:1px;}#my-svg .rough-node .label text,#my-svg .node .label text,#my-svg .image-shape .label,#my-svg .icon-shape .label{text-anchor:middle;}#my-svg .node .katex path{fill:#000;stroke:#000;stroke-width:1px;}#my-svg .rough-node .label,#my-svg .node .label,#my-svg .image-shape .label,#my-svg .icon-shape .label{text-align:center;}#my-svg .node.clickable{cursor:pointer;}#my-svg .root .anchor path{fill:#333333!important;stroke-width:0;stroke:#333333;}#my-svg .arrowheadPath{fill:#333333;}#my-svg .edgePath .path{stroke:#333333;stroke-width:1px;}#my-svg .flowchart-link{stroke:#333333;fill:none;}#my-svg .edgeLabel{background-color:rgba(232,232,232, 0.8);text-align:center;}#my-svg .edgeLabel p{background-color:rgba(232,232,232, 0.8);}#my-svg .edgeLabel rect{opacity:0.5;background-color:rgba(232,232,232, 0.8);fill:rgba(232,232,232, 0.8);}#my-svg .labelBkg{background-color:rgba(232, 232, 232, 0.5);}#my-svg .cluster rect{fill:#ffffde;stroke:#aaaa33;stroke-width:1px;}#my-svg .cluster text{fill:#333;}#my-svg .cluster span{color:#333;}#my-svg div.mermaidTooltip{position:absolute;text-align:center;max-width:200px;padding:2px;font-family:"trebuchet ms",verdana,arial,sans-serif;font-size:12px;background:hsl(80, 100%, 96.2745098039%);border:1px solid #aaaa33;border-radius:2px;pointer-events:none;z-index:100;}#my-svg .flowchartTitleText{text-anchor:middle;font-size:18px;fill:#333;}#my-svg rect.text{fill:none;stroke-width:0;}#my-svg .icon-shape,#my-svg .image-shape{background-color:rgba(232,232,232, 0.8);text-align:center;}#my-svg .icon-shape p,#my-svg .image-shape p{background-color:rgba(232,232,232, 0.8);padding:2px;}#my-svg .icon-shape .label rect,#my-svg .image-shape .label rect{opacity:0.5;background-color:rgba(232,232,232, 0.8);fill:rgba(232,232,232, 0.8);}#my-svg .label-icon{display:inline-block;height:1em;overflow:visible;vertical-align:-0.125em;}#my-svg .node .label-icon path{fill:currentColor;stroke:revert;stroke-width:revert;}#my-svg .node .neo-node{stroke:#9370DB;}#my-svg [data-look="neo"].node rect,#my-svg [data-look="neo"].cluster rect,#my-svg [data-look="neo"].node polygon{stroke:#9370DB;filter:drop-shadow(1px 2px 2px rgba(185, 185, 185, 1));}#my-svg [data-look="neo"].node path{stroke:#9370DB;stroke-width:1px;}#my-svg [data-look="neo"].node .outer-path{filter:drop-shadow(1px 2px 2px rgba(185, 185, 185, 1));}#my-svg [data-look="neo"].node .neo-line path{stroke:#9370DB;filter:none;}#my-svg [data-look="neo"].node circle{stroke:#9370DB;filter:drop-shadow(1px 2px 2px rgba(185, 185, 185, 1));}#my-svg [data-look="neo"].node circle .state-start{fill:#000000;}#my-svg [data-look="neo"].icon-shape .icon{fill:#9370DB;filter:drop-shadow(1px 2px 2px rgba(185, 185, 185, 1));}#my-svg [data-look="neo"].icon-shape .icon-neo path{stroke:#9370DB;filter:drop-shadow(1px 2px 2px rgba(185, 185, 185, 1));}#my-svg :root{--mermaid-font-family:"trebuchet ms",verdana,arial,sans-serif;}</style><g><marker id="my-svg_flowchart-elk-pointEnd" class="marker flowchart-elk" viewBox="0 0 10 10" refX="5" refY="5" markerUnits="userSpaceOnUse" markerWidth="8" markerHeight="8" orient="auto"><path d="M 0 0 L 10 5 L 0 10 z" class="arrowMarkerPath" style="stroke-width: 1; stroke-dasharray: 1, 0;"/></marker><marker id="my-svg_flowchart-elk-pointStart" class="marker flowchart-elk" viewBox="0 0 10 10" refX="4.5" refY="5" markerUnits="userSpaceOnUse" markerWidth="8" markerHeight="8" orient="auto"><path d="M 0 5 L 10 10 L 10 0 z" class="arrowMarkerPath" style="stroke-width: 1; stroke-dasharray: 1, 0;"/></marker><marker id="my-svg_flowchart-elk-pointEnd-margin" class="marker flowchart-elk" viewBox="0 0 11.5 14" refX="11.5" refY="7" markerUnits="userSpaceOnUse" markerWidth="10.5" markerHeight="14" orient="auto"><path d="M 0 0 L 11.5 7 L 0 14 z" class="arrowMarkerPath" style="stroke-width: 0; stroke-dasharray: 1, 0;"/></marker><marker id="my-svg_flowchart-elk-pointStart-margin" class="marker flowchart-elk" viewBox="0 0 11.5 14" refX="1" refY="7" markerUnits="userSpaceOnUse" markerWidth="11.5" markerHeight="14" orient="auto"><polygon points="0,7 11.5,14 11.5,0" class="arrowMarkerPath" style="stroke-width: 0; stroke-dasharray: 1, 0;"/></marker><marker id="my-svg_flowchart-elk-circleEnd" class="marker flowchart-elk" viewBox="0 0 10 10" refX="11" refY="5" markerUnits="userSpaceOnUse" markerWidth="11" markerHeight="11" orient="auto"><circle cx="5" cy="5" r="5" class="arrowMarkerPath" style="stroke-width: 1; stroke-dasharray: 1, 0;"/></marker><marker id="my-svg_flowchart-elk-circleStart" class="marker flowchart-elk" viewBox="0 0 10 10" refX="-1" refY="5" markerUnits="userSpaceOnUse" markerWidth="11" markerHeight="11" orient="auto"><circle cx="5" cy="5" r="5" class="arrowMarkerPath" style="stroke-width: 1; stroke-dasharray: 1, 0;"/></marker><marker id="my-svg_flowchart-elk-circleEnd-margin" class="marker flowchart-elk" viewBox="0 0 10 10" refY="5" refX="12.25" markerUnits="userSpaceOnUse" markerWidth="14" markerHeight="14" orient="auto"><circle cx="5" cy="5" r="5" class="arrowMarkerPath" style="stroke-width: 0; stroke-dasharray: 1, 0;"/></marker><marker id="my-svg_flowchart-elk-circleStart-margin" class="marker flowchart-elk" viewBox="0 0 10 10" refX="-2" refY="5" markerUnits="userSpaceOnUse" markerWidth="14" markerHeight="14" orient="auto"><circle cx="5" cy="5" r="5" class="arrowMarkerPath" style="stroke-width: 0; stroke-dasharray: 1, 0;"/></marker><marker id="my-svg_flowchart-elk-crossEnd" class="marker cross flowchart-elk" viewBox="0 0 11 11" refX="12" refY="5.2" markerUnits="userSpaceOnUse" markerWidth="11" markerHeight="11" orient="auto"><path d="M 1,1 l 9,9 M 10,1 l -9,9" class="arrowMarkerPath" style="stroke-width: 2; stroke-dasharray: 1, 0;"/></marker><marker id="my-svg_flowchart-elk-crossStart" class="marker cross flowchart-elk" viewBox="0 0 11 11" refX="-1" refY="5.2" markerUnits="userSpaceOnUse" markerWidth="11" markerHeight="11" orient="auto"><path d="M 1,1 l 9,9 M 10,1 l -9,9" class="arrowMarkerPath" style="stroke-width: 2; stroke-dasharray: 1, 0;"/></marker><marker id="my-svg_flowchart-elk-crossEnd-margin" class="marker cross flowchart-elk" viewBox="0 0 15 15" refX="17.7" refY="7.5" markerUnits="userSpaceOnUse" markerWidth="12" markerHeight="12" orient="auto"><path d="M 1,1 L 14,14 M 1,14 L 14,1" class="arrowMarkerPath" style="stroke-width: 2.5;"/></marker><marker id="my-svg_flowchart-elk-crossStart-margin" class="marker cross flowchart-elk" viewBox="0 0 15 15" refX="-3.5" refY="7.5" markerUnits="userSpaceOnUse" markerWidth="12" markerHeight="12" orient="auto"><path d="M 1,1 L 14,14 M 1,14 L 14,1" class="arrowMarkerPath" style="stroke-width: 2.5; stroke-dasharray: 1, 0;"/></marker></g><defs><filter id="my-svg-drop-shadow" height="130%" width="130%"><feDropShadow dx="4" dy="4" stdDeviation="0" flood-opacity="0.06" flood-color="#000000"/></filter></defs><defs><filter id="my-svg-drop-shadow-small" height="150%" width="150%"><feDropShadow dx="2" dy="2" stdDeviation="0" flood-opacity="0.06" flood-color="#000000"/></filter></defs><g class="subgraphs"/><g class="nodes"><g class="node default" id="my-svg-flowchart-A-0" data-look="classic" transform="translate(106, 822)"><rect class="basic label-container" style="" x="-94" y="-27" width="188" height="54"/><g class="label" style="" transform="translate(-64, -12)"><rect/><foreignObject width="128" height="24"><div xmlns="http://www.w3.org/1999/xhtml" style="display: table-cell; white-space: nowrap; line-height: 1.5; max-width: 200px; text-align: center;"><span class="nodeLabel"><p>用户打开登录页面</p></span></div></foreignObject></g></g><g class="node default" id="my-svg-flowchart-B-1" data-look="classic" transform="translate(217.5, 911)"><rect class="basic label-container" style="" x="-78" y="-27" width="156" height="54"/><g class="label" style="" transform="translate(-48, -12)"><rect/><foreignObject width="96" height="24"><div xmlns="http://www.w3.org/1999/xhtml" style="display: table-cell; white-space: nowrap; line-height: 1.5; max-width: 200px; text-align: center;"><span class="nodeLabel"><p>输入账号密码</p></span></div></foreignObject></g></g><g class="node default" id="my-svg-flowchart-C-2" data-look="classic" transform="translate(279, 417.5)"><polygon points="123,0 246,-123 123,-246 0,-123" class="label-container" transform="translate(-122.5, 123)"/><g class="label" style="" transform="translate(-96, -12)"><rect/><foreignObject width="192" height="24"><div xmlns="http://www.w3.org/1999/xhtml" style="display: table-cell; white-space: nowrap; line-height: 1.5; max-width: 200px; text-align: center;"><span class="nodeLabel"><p>系统检查账号密码是否正确</p></span></div></foreignObject></g></g><g class="node default" id="my-svg-flowchart-D-3" data-look="classic" transform="translate(366, 721)"><rect class="basic label-container" style="" x="-130" y="-39" width="260" height="78"/><g class="label" style="" transform="translate(-100, -24)"><rect/><foreignObject width="200" height="48"><div xmlns="http://www.w3.org/1999/xhtml" style="display: table; white-space: break-spaces; line-height: 1.5; max-width: 200px; text-align: center; width: 200px;"><span class="nodeLabel"><p>提示错误并返回重新输入账号密码</p></span></div></foreignObject></g></g><g class="node default" id="my-svg-flowchart-E-4" data-look="classic" transform="translate(617, 721)"><rect class="basic label-container" style="" x="-86" y="-27" width="172" height="54"/><g class="label" style="" transform="translate(-56, -12)"><rect/><foreignObject width="112" height="24"><div xmlns="http://www.w3.org/1999/xhtml" style="display: table-cell; white-space: nowrap; line-height: 1.5; max-width: 200px; text-align: center;"><span class="nodeLabel"><p>系统发送验证码</p></span></div></foreignObject></g></g><g class="node default" id="my-svg-flowchart-F-5" data-look="classic" transform="translate(720.5, 822)"><rect class="basic label-container" style="" x="-102" y="-27" width="204" height="54"/><g class="label" style="" transform="translate(-72, -12)"><rect/><foreignObject width="144" height="24"><div xmlns="http://www.w3.org/1999/xhtml" style="display: table-cell; white-space: nowrap; line-height: 1.5; max-width: 200px; text-align: center;"><span class="nodeLabel"><p>用户进入验证码验证</p></span></div></foreignObject></g></g><g class="node default" id="my-svg-flowchart-G-6" data-look="classic" transform="translate(778, 127)"><polygon points="115,0 230,-115 115,-230 0,-115" class="label-container" transform="translate(-114.5, 115)"/><g class="label" style="" transform="translate(-88, -12)"><rect/><foreignObject width="176" height="24"><div xmlns="http://www.w3.org/1999/xhtml" style="display: table-cell; white-space: nowrap; line-height: 1.5; max-width: 200px; text-align: center;"><span class="nodeLabel"><p>系统检查验证码是否通过</p></span></div></foreignObject></g></g><g class="node default" id="my-svg-flowchart-H-7" data-look="classic" transform="translate(825, 620)"><rect class="basic label-container" style="" x="-86" y="-27" width="172" height="54"/><g class="label" style="" transform="translate(-56, -12)"><rect/><foreignObject width="112" height="24"><div xmlns="http://www.w3.org/1999/xhtml" style="display: table-cell; white-space: nowrap; line-height: 1.5; max-width: 200px; text-align: center;"><span class="nodeLabel"><p>重新输入验证码</p></span></div></foreignObject></g></g><g class="node default" id="my-svg-flowchart-I-8" data-look="classic" transform="translate(1024, 620)"><rect class="basic label-container" style="" x="-78" y="-27" width="156" height="54"/><g class="label" style="" transform="translate(-48, -12)"><rect/><foreignObject width="96" height="24"><div xmlns="http://www.w3.org/1999/xhtml" style="display: table-cell; white-space: nowrap; line-height: 1.5; max-width: 200px; text-align: center;"><span class="nodeLabel"><p>进入用户主页</p></span></div></foreignObject></g></g></g><g class="edges edgePaths"><path d="M106,849L106,851.083C106,853.167,106,857.333,106.362,859.888C106.724,862.443,107.448,863.386,108.281,864.219C109.114,865.052,110.057,865.776,120.945,866.138C131.833,866.5,152.667,866.5,163.555,866.862C174.443,867.224,175.386,867.948,176.219,868.781C177.052,869.614,177.776,870.557,178.138,872.445C178.5,874.333,178.5,877.167,178.5,878.583L178.5,880" id="my-svg-L_A_B_0_0" class="edge-thickness-normal edge-pattern-solid edge-thickness-normal edge-pattern-solid flowchart-link" style=";" data-edge="true" data-et="edge" data-id="L_A_B_0_0" data-points="W3sieCI6MTA2LCJ5Ijo4NDl9LHsieCI6MTA2LCJ5Ijo4NjYuNX0seyJ4IjoxNzguNSwieSI6ODY2LjV9LHsieCI6MTc4LjUsInkiOjg4NH1d" data-look="classic" marker-end="url(#my-svg_flowchart-elk-pointEnd)"/><path d="M217.5,884L217.5,873.667C217.5,863.333,217.5,842.667,217.5,815.5C217.5,788.333,217.5,754.667,217.5,721C217.5,687.333,217.5,653.667,217.5,623.583C217.5,593.5,217.5,567,220.693,547.592C223.886,528.184,230.272,515.867,233.466,509.709L236.659,503.551" id="my-svg-L_B_C_0_0" class="edge-thickness-normal edge-pattern-solid edge-thickness-normal edge-pattern-solid flowchart-link" style=";" data-edge="true" data-et="edge" data-id="L_B_C_0_0" data-points="W3sieCI6MjE3LjUsInkiOjg4NH0seyJ4IjoyMTcuNSwieSI6ODIyfSx7IngiOjIxNy41LCJ5Ijo3MjF9LHsieCI6MjE3LjUsInkiOjYyMH0seyJ4IjoyMTcuNSwieSI6NTQwLjV9LHsieCI6MjM4LjUsInkiOjUwMH1d" data-look="classic" marker-end="url(#my-svg_flowchart-elk-pointEnd)"/><path d="M279,540.5L279,545.5C279,550.5,279,560.5,279.362,565.971C279.724,571.443,280.448,572.386,281.281,573.219C282.114,574.052,283.057,574.776,296.362,575.138C309.667,575.5,335.333,575.5,348.638,575.862C361.943,576.224,362.886,576.948,363.719,577.781C364.552,578.614,365.276,579.557,365.638,596.279C366,613,366,645.5,366,661.75L366,678" id="my-svg-L_C_D_0_0" class="edge-thickness-normal edge-pattern-solid edge-thickness-normal edge-pattern-solid flowchart-link" style=";" data-edge="true" data-et="edge" data-id="L_C_D_0_0" data-points="W3sieCI6Mjc5LCJ5Ijo1NDAuNX0seyJ4IjoyNzksInkiOjU3NS41fSx7IngiOjM2NiwieSI6NTc1LjV9LHsieCI6MzY2LCJ5Ijo2ODJ9XQ==" data-look="classic" marker-end="url(#my-svg_flowchart-elk-pointEnd)"/><path d="M320.5,500L323.833,506.75C327.167,513.5,333.833,527,337.167,535.833C340.5,544.667,340.5,548.833,340.862,551.388C341.224,553.943,341.948,554.886,342.781,555.719C343.614,556.552,344.557,557.276,389.445,557.638C434.333,558,523.167,558,568.055,558.362C612.943,558.724,613.886,559.448,614.719,560.281C615.552,561.114,616.276,562.057,616.638,583.695C617,605.333,617,647.667,617,668.833L617,690" id="my-svg-L_C_E_0_0" class="edge-thickness-normal edge-pattern-solid edge-thickness-normal edge-pattern-solid flowchart-link" style=";" data-edge="true" data-et="edge" data-id="L_C_E_0_0" data-points="W3sieCI6MzIwLjUsInkiOjUwMH0seyJ4IjozNDAuNSwieSI6NTQwLjV9LHsieCI6MzQwLjUsInkiOjU1OH0seyJ4Ijo2MTcsInkiOjU1OH0seyJ4Ijo2MTcsInkiOjY5NH1d" data-look="classic" marker-end="url(#my-svg_flowchart-elk-pointEnd)"/><path d="M617,748L617,752.083C617,756.167,617,764.333,617.362,768.888C617.724,773.443,618.448,774.386,619.281,775.219C620.114,776.052,621.057,776.776,628.612,777.138C636.167,777.5,650.333,777.5,657.888,777.862C665.443,778.224,666.386,778.948,667.219,779.781C668.052,780.614,668.776,781.557,669.138,783.445C669.5,785.333,669.5,788.167,669.5,789.583L669.5,791" id="my-svg-L_E_F_0_0" class="edge-thickness-normal edge-pattern-solid edge-thickness-normal edge-pattern-solid flowchart-link" style=";" data-edge="true" data-et="edge" data-id="L_E_F_0_0" data-points="W3sieCI6NjE3LCJ5Ijo3NDh9LHsieCI6NjE3LCJ5Ijo3NzcuNX0seyJ4Ijo2NjkuNSwieSI6Nzc3LjV9LHsieCI6NjY5LjUsInkiOjc5NX1d" data-look="classic" marker-end="url(#my-svg_flowchart-elk-pointEnd)"/><path d="M720.5,795L720.5,782.667C720.5,770.333,720.5,745.667,720.5,716.5C720.5,687.333,720.5,653.667,720.5,603.083C720.5,552.5,720.5,485,720.5,422C720.5,359,720.5,300.5,723.47,265.536C726.441,230.572,732.381,219.144,735.351,213.43L738.322,207.716" id="my-svg-L_F_G_0_0" class="edge-thickness-normal edge-pattern-solid edge-thickness-normal edge-pattern-solid flowchart-link" style=";" data-edge="true" data-et="edge" data-id="L_F_G_0_0" data-points="W3sieCI6NzIwLjUsInkiOjc5NX0seyJ4Ijo3MjAuNSwieSI6NzIxfSx7IngiOjcyMC41LCJ5Ijo2MjB9LHsieCI6NzIwLjUsInkiOjQxNy41fSx7IngiOjcyMC41LCJ5IjoyNDJ9LHsieCI6NzQwLjE2NjY2NjY2NjY2NjYsInkiOjIwNC4xNjY2NjY2NjY2NjY2Nn1d" data-look="classic" marker-end="url(#my-svg_flowchart-elk-pointEnd)"/><path d="M778,242L778,247C778,252,778,262,778.362,267.471C778.724,272.943,779.448,273.886,780.281,274.719C781.114,275.552,782.057,276.276,788.695,276.638C795.333,277,807.667,277,814.305,277.362C820.943,277.724,821.886,278.448,822.719,279.281C823.552,280.114,824.276,281.057,824.638,332.695C825,384.333,825,486.667,825,537.833L825,589" id="my-svg-L_G_H_0_0" class="edge-thickness-normal edge-pattern-solid edge-thickness-normal edge-pattern-solid flowchart-link" style=";" data-edge="true" data-et="edge" data-id="L_G_H_0_0" data-points="W3sieCI6Nzc4LCJ5IjoyNDJ9LHsieCI6Nzc4LCJ5IjoyNzd9LHsieCI6ODI1LCJ5IjoyNzd9LHsieCI6ODI1LCJ5Ijo1OTN9XQ==" data-look="classic" marker-end="url(#my-svg_flowchart-elk-pointEnd)"/><path d="M816.833,204.167L819.944,210.472C823.056,216.778,829.278,229.389,832.389,237.778C835.5,246.167,835.5,250.333,835.862,252.888C836.224,255.443,836.948,256.386,837.781,257.219C838.614,258.052,839.557,258.776,869.779,259.138C900,259.5,959.5,259.5,989.721,259.862C1019.943,260.224,1020.886,260.948,1021.719,261.781C1022.552,262.614,1023.276,263.557,1023.638,318.112C1024,372.667,1024,480.833,1024,534.917L1024,589" id="my-svg-L_G_I_0_0" class="edge-thickness-normal edge-pattern-solid edge-thickness-normal edge-pattern-solid flowchart-link" style=";" data-edge="true" data-et="edge" data-id="L_G_I_0_0" data-points="W3sieCI6ODE2LjgzMzMzMzMzMzMzMzQsInkiOjIwNC4xNjY2NjY2NjY2NjY2Nn0seyJ4Ijo4MzUuNSwieSI6MjQyfSx7IngiOjgzNS41LCJ5IjoyNTkuNX0seyJ4IjoxMDI0LCJ5IjoyNTkuNX0seyJ4IjoxMDI0LCJ5Ijo1OTN9XQ==" data-look="classic" marker-end="url(#my-svg_flowchart-elk-pointEnd)"/><path d="M366,760L366,776.917C366,793.833,366,827.667,365.638,845.055C365.276,862.443,364.552,863.386,363.719,864.219C362.886,865.052,361.943,865.776,344.888,866.138C327.833,866.5,294.667,866.5,277.612,866.862C260.557,867.224,259.614,867.948,258.781,868.781C257.948,869.614,257.224,870.557,256.862,872.445C256.5,874.333,256.5,877.167,256.5,878.583L256.5,880" id="my-svg-L_D_B_0_0" class="edge-thickness-normal edge-pattern-dotted edge-thickness-normal edge-pattern-solid flowchart-link" style=";" data-edge="true" data-et="edge" data-id="L_D_B_0_0" data-points="W3sieCI6MzY2LCJ5Ijo3NjB9LHsieCI6MzY2LCJ5Ijo4NjYuNX0seyJ4IjoyNTYuNSwieSI6ODY2LjV9LHsieCI6MjU2LjUsInkiOjg4NH1d" data-look="classic" marker-end="url(#my-svg_flowchart-elk-pointEnd)"/><path d="M825,647L825,667.917C825,688.833,825,730.667,824.638,752.055C824.276,773.443,823.552,774.386,822.719,775.219C821.886,776.052,820.943,776.776,813.221,777.138C805.5,777.5,791,777.5,783.279,777.862C775.557,778.224,774.614,778.948,773.781,779.781C772.948,780.614,772.224,781.557,771.862,783.445C771.5,785.333,771.5,788.167,771.5,789.583L771.5,791" id="my-svg-L_H_F_0_0" class="edge-thickness-normal edge-pattern-dotted edge-thickness-normal edge-pattern-solid flowchart-link" style=";" data-edge="true" data-et="edge" data-id="L_H_F_0_0" data-points="W3sieCI6ODI1LCJ5Ijo2NDd9LHsieCI6ODI1LCJ5Ijo3NzcuNX0seyJ4Ijo3NzEuNSwieSI6Nzc3LjV9LHsieCI6NzcxLjUsInkiOjc5NX1d" data-look="classic" marker-end="url(#my-svg_flowchart-elk-pointEnd)"/></g><g class="edgeLabels"><g class="edgeLabel"><g class="label" data-id="L_A_B_0_0" transform="translate(0, 0)"><foreignObject width="0" height="0"><div xmlns="http://www.w3.org/1999/xhtml" class="labelBkg" style="display: table-cell; white-space: nowrap; line-height: 1.5; max-width: 200px; text-align: center;"><span class="edgeLabel"></span></div></foreignObject></g></g><g class="edgeLabel"><g class="label" data-id="L_B_C_0_0" transform="translate(0, 0)"><foreignObject width="0" height="0"><div xmlns="http://www.w3.org/1999/xhtml" class="labelBkg" style="display: table-cell; white-space: nowrap; line-height: 1.5; max-width: 200px; text-align: center;"><span class="edgeLabel"></span></div></foreignObject></g></g><g class="edgeLabel" transform="translate(366, 620)"><g class="label" data-id="L_C_D_0_0" transform="translate(-24, -12)"><foreignObject width="48" height="24"><div xmlns="http://www.w3.org/1999/xhtml" class="labelBkg" style="display: table-cell; white-space: nowrap; line-height: 1.5; max-width: 200px; text-align: center;"><span class="edgeLabel"><p>不正确</p></span></div></foreignObject></g></g><g class="edgeLabel" transform="translate(617, 620)"><g class="label" data-id="L_C_E_0_0" transform="translate(-16, -12)"><foreignObject width="32" height="24"><div xmlns="http://www.w3.org/1999/xhtml" class="labelBkg" style="display: table-cell; white-space: nowrap; line-height: 1.5; max-width: 200px; text-align: center;"><span class="edgeLabel"><p>正确</p></span></div></foreignObject></g></g><g class="edgeLabel"><g class="label" data-id="L_E_F_0_0" transform="translate(0, 0)"><foreignObject width="0" height="0"><div xmlns="http://www.w3.org/1999/xhtml" class="labelBkg" style="display: table-cell; white-space: nowrap; line-height: 1.5; max-width: 200px; text-align: center;"><span class="edgeLabel"></span></div></foreignObject></g></g><g class="edgeLabel"><g class="label" data-id="L_F_G_0_0" transform="translate(0, 0)"><foreignObject width="0" height="0"><div xmlns="http://www.w3.org/1999/xhtml" class="labelBkg" style="display: table-cell; white-space: nowrap; line-height: 1.5; max-width: 200px; text-align: center;"><span class="edgeLabel"></span></div></foreignObject></g></g><g class="edgeLabel" transform="translate(825, 417.5)"><g class="label" data-id="L_G_H_0_0" transform="translate(-24, -12)"><foreignObject width="48" height="24"><div xmlns="http://www.w3.org/1999/xhtml" class="labelBkg" style="display: table-cell; white-space: nowrap; line-height: 1.5; max-width: 200px; text-align: center;"><span class="edgeLabel"><p>不通过</p></span></div></foreignObject></g></g><g class="edgeLabel" transform="translate(1024, 417.5)"><g class="label" data-id="L_G_I_0_0" transform="translate(-16, -12)"><foreignObject width="32" height="24"><div xmlns="http://www.w3.org/1999/xhtml" class="labelBkg" style="display: table-cell; white-space: nowrap; line-height: 1.5; max-width: 200px; text-align: center;"><span class="edgeLabel"><p>通过</p></span></div></foreignObject></g></g><g class="edgeLabel" transform="translate(366, 822)"><g class="label" data-id="L_D_B_0_0" transform="translate(-16, -12)"><foreignObject width="32" height="24"><div xmlns="http://www.w3.org/1999/xhtml" class="labelBkg" style="display: table-cell; white-space: nowrap; line-height: 1.5; max-width: 200px; text-align: center;"><span class="edgeLabel"><p>返回</p></span></div></foreignObject></g></g><g class="edgeLabel" transform="translate(825, 721)"><g class="label" data-id="L_H_F_0_0" transform="translate(-16, -12)"><foreignObject width="32" height="24"><div xmlns="http://www.w3.org/1999/xhtml" class="labelBkg" style="display: table-cell; white-space: nowrap; line-height: 1.5; max-width: 200px; text-align: center;"><span class="edgeLabel"><p>返回</p></span></div></foreignObject></g></g></g></svg>