<svg id="my-svg" width="100%" xmlns="http://www.w3.org/2000/svg" xmlns:xlink="http://www.w3.org/1999/xlink" class="flowchart" style="max-width: 997px; background-color: white;" viewBox="4 4 997 896.5" role="graphics-document document" aria-roledescription="flowchart-elk"><style>#my-svg{font-family:"trebuchet ms",verdana,arial,sans-serif;font-size:16px;fill:#333;}@keyframes edge-animation-frame{from{stroke-dashoffset:0;}}@keyframes dash{to{stroke-dashoffset:0;}}#my-svg .edge-animation-slow{stroke-dasharray:9,5!important;stroke-dashoffset:900;animation:dash 50s linear infinite;stroke-linecap:round;}#my-svg .edge-animation-fast{stroke-dasharray:9,5!important;stroke-dashoffset:900;animation:dash 20s linear infinite;stroke-linecap:round;}#my-svg .error-icon{fill:#552222;}#my-svg .error-text{fill:#552222;stroke:#552222;}#my-svg .edge-thickness-normal{stroke-width:1px;}#my-svg .edge-thickness-thick{stroke-width:3.5px;}#my-svg .edge-pattern-solid{stroke-dasharray:0;}#my-svg .edge-thickness-invisible{stroke-width:0;fill:none;}#my-svg .edge-pattern-dashed{stroke-dasharray:3;}#my-svg .edge-pattern-dotted{stroke-dasharray:2;}#my-svg .marker{fill:#333333;stroke:#333333;}#my-svg .marker.cross{stroke:#333333;}#my-svg svg{font-family:"trebuchet ms",verdana,arial,sans-serif;font-size:16px;}#my-svg p{margin:0;}#my-svg .label{font-family:"trebuchet ms",verdana,arial,sans-serif;color:#333;}#my-svg .cluster-label text{fill:#333;}#my-svg .cluster-label span{color:#333;}#my-svg .cluster-label span p{background-color:transparent;}#my-svg .label text,#my-svg span{fill:#333;color:#333;}#my-svg .node rect,#my-svg .node circle,#my-svg .node ellipse,#my-svg .node polygon,#my-svg .node path{fill:#ECECFF;stroke:#9370DB;stroke-width:1px;}#my-svg .rough-node .label text,#my-svg .node .label text,#my-svg .image-shape .label,#my-svg .icon-shape .label{text-anchor:middle;}#my-svg .node .katex path{fill:#000;stroke:#000;stroke-width:1px;}#my-svg .rough-node .label,#my-svg .node .label,#my-svg .image-shape .label,#my-svg .icon-shape .label{text-align:center;}#my-svg .node.clickable{cursor:pointer;}#my-svg .root .anchor path{fill:#333333!important;stroke-width:0;stroke:#333333;}#my-svg .arrowheadPath{fill:#333333;}#my-svg .edgePath .path{stroke:#333333;stroke-width:1px;}#my-svg .flowchart-link{stroke:#333333;fill:none;}#my-svg .edgeLabel{background-color:rgba(232,232,232, 0.8);text-align:center;}#my-svg .edgeLabel p{background-color:rgba(232,232,232, 0.8);}#my-svg .edgeLabel rect{opacity:0.5;background-color:rgba(232,232,232, 0.8);fill:rgba(232,232,232, 0.8);}#my-svg .labelBkg{background-color:rgba(232, 232, 232, 0.5);}#my-svg .cluster rect{fill:#ffffde;stroke:#aaaa33;stroke-width:1px;}#my-svg .cluster text{fill:#333;}#my-svg .cluster span{color:#333;}#my-svg div.mermaidTooltip{position:absolute;text-align:center;max-width:200px;padding:2px;font-family:"trebuchet ms",verdana,arial,sans-serif;font-size:12px;background:hsl(80, 100%, 96.2745098039%);border:1px solid #aaaa33;border-radius:2px;pointer-events:none;z-index:100;}#my-svg .flowchartTitleText{text-anchor:middle;font-size:18px;fill:#333;}#my-svg rect.text{fill:none;stroke-width:0;}#my-svg .icon-shape,#my-svg .image-shape{background-color:rgba(232,232,232, 0.8);text-align:center;}#my-svg .icon-shape p,#my-svg .image-shape p{background-color:rgba(232,232,232, 0.8);padding:2px;}#my-svg .icon-shape .label rect,#my-svg .image-shape .label rect{opacity:0.5;background-color:rgba(232,232,232, 0.8);fill:rgba(232,232,232, 0.8);}#my-svg .label-icon{display:inline-block;height:1em;overflow:visible;vertical-align:-0.125em;}#my-svg .node .label-icon path{fill:currentColor;stroke:revert;stroke-width:revert;}#my-svg .node .neo-node{stroke:#9370DB;}#my-svg [data-look="neo"].node rect,#my-svg [data-look="neo"].cluster rect,#my-svg [data-look="neo"].node polygon{stroke:#9370DB;filter:drop-shadow(1px 2px 2px rgba(185, 185, 185, 1));}#my-svg [data-look="neo"].node path{stroke:#9370DB;stroke-width:1px;}#my-svg [data-look="neo"].node .outer-path{filter:drop-shadow(1px 2px 2px rgba(185, 185, 185, 1));}#my-svg [data-look="neo"].node .neo-line path{stroke:#9370DB;filter:none;}#my-svg [data-look="neo"].node circle{stroke:#9370DB;filter:drop-shadow(1px 2px 2px rgba(185, 185, 185, 1));}#my-svg [data-look="neo"].node circle .state-start{fill:#000000;}#my-svg [data-look="neo"].icon-shape .icon{fill:#9370DB;filter:drop-shadow(1px 2px 2px rgba(185, 185, 185, 1));}#my-svg [data-look="neo"].icon-shape .icon-neo path{stroke:#9370DB;filter:drop-shadow(1px 2px 2px rgba(185, 185, 185, 1));}#my-svg :root{--mermaid-font-family:"trebuchet ms",verdana,arial,sans-serif;}</style><g><marker id="my-svg_flowchart-elk-pointEnd" class="marker flowchart-elk" viewBox="0 0 10 10" refX="5" refY="5" markerUnits="userSpaceOnUse" markerWidth="8" markerHeight="8" orient="auto"><path d="M 0 0 L 10 5 L 0 10 z" class="arrowMarkerPath" style="stroke-width: 1; stroke-dasharray: 1, 0;"/></marker><marker id="my-svg_flowchart-elk-pointStart" class="marker flowchart-elk" viewBox="0 0 10 10" refX="4.5" refY="5" markerUnits="userSpaceOnUse" markerWidth="8" markerHeight="8" orient="auto"><path d="M 0 5 L 10 10 L 10 0 z" class="arrowMarkerPath" style="stroke-width: 1; stroke-dasharray: 1, 0;"/></marker><marker id="my-svg_flowchart-elk-pointEnd-margin" class="marker flowchart-elk" viewBox="0 0 11.5 14" refX="11.5" refY="7" markerUnits="userSpaceOnUse" markerWidth="10.5" markerHeight="14" orient="auto"><path d="M 0 0 L 11.5 7 L 0 14 z" class="arrowMarkerPath" style="stroke-width: 0; stroke-dasharray: 1, 0;"/></marker><marker id="my-svg_flowchart-elk-pointStart-margin" class="marker flowchart-elk" viewBox="0 0 11.5 14" refX="1" refY="7" markerUnits="userSpaceOnUse" markerWidth="11.5" markerHeight="14" orient="auto"><polygon points="0,7 11.5,14 11.5,0" class="arrowMarkerPath" style="stroke-width: 0; stroke-dasharray: 1, 0;"/></marker><marker id="my-svg_flowchart-elk-circleEnd" class="marker flowchart-elk" viewBox="0 0 10 10" refX="11" refY="5" markerUnits="userSpaceOnUse" markerWidth="11" markerHeight="11" orient="auto"><circle cx="5" cy="5" r="5" class="arrowMarkerPath" style="stroke-width: 1; stroke-dasharray: 1, 0;"/></marker><marker id="my-svg_flowchart-elk-circleStart" class="marker flowchart-elk" viewBox="0 0 10 10" refX="-1" refY="5" markerUnits="userSpaceOnUse" markerWidth="11" markerHeight="11" orient="auto"><circle cx="5" cy="5" r="5" class="arrowMarkerPath" style="stroke-width: 1; stroke-dasharray: 1, 0;"/></marker><marker id="my-svg_flowchart-elk-circleEnd-margin" class="marker flowchart-elk" viewBox="0 0 10 10" refY="5" refX="12.25" markerUnits="userSpaceOnUse" markerWidth="14" markerHeight="14" orient="auto"><circle cx="5" cy="5" r="5" class="arrowMarkerPath" style="stroke-width: 0; stroke-dasharray: 1, 0;"/></marker><marker id="my-svg_flowchart-elk-circleStart-margin" class="marker flowchart-elk" viewBox="0 0 10 10" refX="-2" refY="5" markerUnits="userSpaceOnUse" markerWidth="14" markerHeight="14" orient="auto"><circle cx="5" cy="5" r="5" class="arrowMarkerPath" style="stroke-width: 0; stroke-dasharray: 1, 0;"/></marker><marker id="my-svg_flowchart-elk-crossEnd" class="marker cross flowchart-elk" viewBox="0 0 11 11" refX="12" refY="5.2" markerUnits="userSpaceOnUse" markerWidth="11" markerHeight="11" orient="auto"><path d="M 1,1 l 9,9 M 10,1 l -9,9" class="arrowMarkerPath" style="stroke-width: 2; stroke-dasharray: 1, 0;"/></marker><marker id="my-svg_flowchart-elk-crossStart" class="marker cross flowchart-elk" viewBox="0 0 11 11" refX="-1" refY="5.2" markerUnits="userSpaceOnUse" markerWidth="11" markerHeight="11" orient="auto"><path d="M 1,1 l 9,9 M 10,1 l -9,9" class="arrowMarkerPath" style="stroke-width: 2; stroke-dasharray: 1, 0;"/></marker><marker id="my-svg_flowchart-elk-crossEnd-margin" class="marker cross flowchart-elk" viewBox="0 0 15 15" refX="17.7" refY="7.5" markerUnits="userSpaceOnUse" markerWidth="12" markerHeight="12" orient="auto"><path d="M 1,1 L 14,14 M 1,14 L 14,1" class="arrowMarkerPath" style="stroke-width: 2.5;"/></marker><marker id="my-svg_flowchart-elk-crossStart-margin" class="marker cross flowchart-elk" viewBox="0 0 15 15" refX="-3.5" refY="7.5" markerUnits="userSpaceOnUse" markerWidth="12" markerHeight="12" orient="auto"><path d="M 1,1 L 14,14 M 1,14 L 14,1" class="arrowMarkerPath" style="stroke-width: 2.5; stroke-dasharray: 1, 0;"/></marker></g><defs><filter id="my-svg-drop-shadow" height="130%" width="130%"><feDropShadow dx="4" dy="4" stdDeviation="0" flood-opacity="0.06" flood-color="#000000"/></filter></defs><defs><filter id="my-svg-drop-shadow-small" height="150%" width="150%"><feDropShadow dx="2" dy="2" stdDeviation="0" flood-opacity="0.06" flood-color="#000000"/></filter></defs><g class="subgraphs"/><g class="nodes"><g class="node default" id="my-svg-flowchart-A-0" data-look="classic" transform="translate(443.2, 873)"><polygon points="-19.5,0 159,0 178.5,-39 0,-39" class="label-container" transform="translate(-79.5,19.5)"/><g class="label" style="" transform="translate(-72, -12)"><rect/><foreignObject width="144" height="24"><div xmlns="http://www.w3.org/1999/xhtml" style="display: table-cell; white-space: nowrap; line-height: 1.5; max-width: 200px; text-align: center;"><span class="nodeLabel"><p>用户输入账号和密码</p></span></div></foreignObject></g></g><g class="node default" id="my-svg-flowchart-B-1" data-look="classic" transform="translate(237, 468.5)"><polygon points="99,0 198,-99 99,-198 0,-99" class="label-container" transform="translate(-98.5, 99)"/><g class="label" style="" transform="translate(-72, -12)"><rect/><foreignObject width="144" height="24"><div xmlns="http://www.w3.org/1999/xhtml" style="display: table-cell; white-space: nowrap; line-height: 1.5; max-width: 200px; text-align: center;"><span class="nodeLabel"><p>登录信息是否完整？</p></span></div></foreignObject></g></g><g class="node default" id="my-svg-flowchart-C-2" data-look="classic" transform="translate(121.5, 710.5)"><polygon points="-19.5,0 143,0 162.5,-39 0,-39" class="label-container" transform="translate(-71.5,19.5)"/><g class="label" style="" transform="translate(-64, -12)"><rect/><foreignObject width="128" height="24"><div xmlns="http://www.w3.org/1999/xhtml" style="display: table-cell; white-space: nowrap; line-height: 1.5; max-width: 200px; text-align: center;"><span class="nodeLabel"><p>提示用户重新输入</p></span></div></foreignObject></g></g><g class="node default" id="my-svg-flowchart-D-3" data-look="classic" transform="translate(327, 698.5)"><polygon points="0,0 143,0 143,-39 0,-39 0,0 -8,0 151,0 151,-39 -8,-39 -8,0" class="label-container" transform="translate(-71.5,19.5)"/><g class="label" style="" transform="translate(-64, -12)"><rect/><foreignObject width="128" height="24"><div xmlns="http://www.w3.org/1999/xhtml" style="display: table-cell; white-space: nowrap; line-height: 1.5; max-width: 200px; text-align: center;"><span class="nodeLabel"><p>调用登录验证模块</p></span></div></foreignObject></g></g><g class="node default" id="my-svg-flowchart-E-4" data-look="classic" transform="translate(763.5, 111)"><polygon points="99,0 198,-99 99,-198 0,-99" class="label-container" transform="translate(-98.5, 99)"/><g class="label" style="" transform="translate(-72, -12)"><rect/><foreignObject width="144" height="24"><div xmlns="http://www.w3.org/1999/xhtml" style="display: table-cell; white-space: nowrap; line-height: 1.5; max-width: 200px; text-align: center;"><span class="nodeLabel"><p>账号密码是否正确？</p></span></div></foreignObject></g></g><g class="node default" id="my-svg-flowchart-F-5" data-look="classic" transform="translate(463, 444.5)"><polygon points="-19.5,0 143,0 162.5,-39 0,-39" class="label-container" transform="translate(-71.5,19.5)"/><g class="label" style="" transform="translate(-64, -12)"><rect/><foreignObject width="128" height="24"><div xmlns="http://www.w3.org/1999/xhtml" style="display: table-cell; white-space: nowrap; line-height: 1.5; max-width: 200px; text-align: center;"><span class="nodeLabel"><p>提示用户重新登录</p></span></div></foreignObject></g></g><g class="node default" id="my-svg-flowchart-G-6" data-look="classic" transform="translate(813, 444.5)"><polygon points="123,0 246,-123 123,-246 0,-123" class="label-container" transform="translate(-122.5, 123)"/><g class="label" style="" transform="translate(-96, -12)"><rect/><foreignObject width="192" height="24"><div xmlns="http://www.w3.org/1999/xhtml" style="display: table-cell; white-space: nowrap; line-height: 1.5; max-width: 200px; text-align: center;"><span class="nodeLabel"><p>判断用户是否具有访问权限</p></span></div></foreignObject></g></g><g class="node default" id="my-svg-flowchart-H-7" data-look="classic" transform="translate(597, 710.5)"><polygon points="-19.5,0 127,0 146.5,-39 0,-39" class="label-container" transform="translate(-63.5,19.5)"/><g class="label" style="" transform="translate(-56, -12)"><rect/><foreignObject width="112" height="24"><div xmlns="http://www.w3.org/1999/xhtml" style="display: table-cell; white-space: nowrap; line-height: 1.5; max-width: 200px; text-align: center;"><span class="nodeLabel"><p>显示无权限提示</p></span></div></foreignObject></g></g><g class="node default" id="my-svg-flowchart-I-8" data-look="classic" transform="translate(854, 710.5)"><polygon points="-31.5,0 215,0 246.5,-63 0,-63" class="label-container" transform="translate(-107.5,31.5)"/><g class="label" style="" transform="translate(-100, -24)"><rect/><foreignObject width="200" height="48"><div xmlns="http://www.w3.org/1999/xhtml" style="display: table; white-space: break-spaces; line-height: 1.5; max-width: 200px; text-align: center; width: 200px;"><span class="nodeLabel"><p>进入系统首页并加载用户菜单</p></span></div></foreignObject></g></g></g><g class="edges edgePaths"><path d="M383.8,853.5L383.8,851.417C383.8,849.333,383.8,845.167,383.438,842.612C383.076,840.057,382.352,839.114,381.519,838.281C380.686,837.448,379.743,836.724,318.971,836.362C258.2,836,137.6,836,76.829,835.638C16.057,835.276,15.114,834.552,14.281,833.719C13.448,832.886,12.724,831.943,12.362,824.471C12,817,12,803,12,782.917C12,762.833,12,736.667,12,710.5C12,684.333,12,658.167,12,638.083C12,618,12,604,12.362,596.529C12.724,589.057,13.448,588.114,14.281,587.281C15.114,586.448,16.057,585.724,44.112,585.362C72.167,585,127.333,585,155.388,584.638C183.443,584.276,184.386,583.552,185.219,582.719C186.052,581.886,186.776,580.943,187.138,578.388C187.5,575.833,187.5,571.667,190.024,564.757C192.549,557.848,197.597,548.196,200.122,543.37L202.646,538.544" id="my-svg-L_A_B_0_0" class="edge-thickness-normal edge-pattern-solid edge-thickness-normal edge-pattern-solid flowchart-link" style=";" data-edge="true" data-et="edge" data-id="L_A_B_0_0" data-points="W3sieCI6MzgzLjgsInkiOjg1My41fSx7IngiOjM4My44LCJ5Ijo4MzZ9LHsieCI6MTIsInkiOjgzNn0seyJ4IjoxMiwieSI6Nzg5fSx7IngiOjEyLCJ5Ijo3MTAuNX0seyJ4IjoxMiwieSI6NjMyfSx7IngiOjEyLCJ5Ijo1ODV9LHsieCI6MTg3LjUsInkiOjU4NX0seyJ4IjoxODcuNSwieSI6NTY3LjV9LHsieCI6MjA0LjUsInkiOjUzNX1d" data-look="classic" marker-end="url(#my-svg_flowchart-elk-pointEnd)"/><path d="M237,567.5L237,572.5C237,577.5,237,587.5,236.638,592.971C236.276,598.443,235.552,599.386,234.719,600.219C233.886,601.052,232.943,601.776,214.888,602.138C196.833,602.5,161.667,602.5,143.612,602.862C125.557,603.224,124.614,603.948,123.781,604.781C122.948,605.614,122.224,606.557,121.862,620.279C121.5,634,121.5,660.5,121.5,673.75L121.5,687" id="my-svg-L_B_C_0_0" class="edge-thickness-normal edge-pattern-solid edge-thickness-normal edge-pattern-solid flowchart-link" style=";" data-edge="true" data-et="edge" data-id="L_B_C_0_0" data-points="W3sieCI6MjM3LCJ5Ijo1NjcuNX0seyJ4IjoyMzcsInkiOjYwMi41fSx7IngiOjEyMS41LCJ5Ijo2MDIuNX0seyJ4IjoxMjEuNSwieSI6NjkxfV0=" data-look="classic" marker-end="url(#my-svg_flowchart-elk-pointEnd)"/><path d="M270.5,535L273.167,540.417C275.833,545.833,281.167,556.667,283.833,576.917C286.5,597.167,286.5,626.833,286.862,642.138C287.224,657.443,287.948,658.386,288.781,659.219C289.614,660.052,290.557,660.776,291.695,661.138C292.833,661.5,294.167,661.5,295.305,661.862C296.443,662.224,297.386,662.948,298.219,663.781C299.052,664.614,299.776,665.557,300.138,667.445C300.5,669.333,300.5,672.167,300.5,673.583L300.5,675" id="my-svg-L_B_D_0_0" class="edge-thickness-normal edge-pattern-solid edge-thickness-normal edge-pattern-solid flowchart-link" style=";" data-edge="true" data-et="edge" data-id="L_B_D_0_0" data-points="W3sieCI6MjcwLjUsInkiOjUzNX0seyJ4IjoyODYuNSwieSI6NTY3LjV9LHsieCI6Mjg2LjUsInkiOjY2MS41fSx7IngiOjMwMC41LCJ5Ijo2NjEuNX0seyJ4IjozMDAuNSwieSI6Njc5fV0=" data-look="classic" marker-end="url(#my-svg_flowchart-elk-pointEnd)"/><path d="M121.5,730L121.5,743.917C121.5,757.833,121.5,785.667,121.862,800.055C122.224,814.443,122.948,815.386,123.781,816.219C124.614,817.052,125.557,817.776,174.679,818.138C223.8,818.5,321.1,818.5,370.221,818.862C419.343,819.224,420.286,819.948,421.119,820.781C421.952,821.614,422.676,822.557,423.038,827.362C423.4,832.167,423.4,840.833,423.4,845.167L423.4,849.5" id="my-svg-L_C_A_0_0" class="edge-thickness-normal edge-pattern-dotted edge-thickness-normal edge-pattern-solid flowchart-link" style=";" data-edge="true" data-et="edge" data-id="L_C_A_0_0" data-points="W3sieCI6MTIxLjUsInkiOjczMH0seyJ4IjoxMjEuNSwieSI6ODE4LjV9LHsieCI6NDIzLjQsInkiOjgxOC41fSx7IngiOjQyMy40LCJ5Ijo4NTMuNX1d" data-look="classic" marker-end="url(#my-svg_flowchart-elk-pointEnd)"/><path d="M353.5,679L353.5,671.167C353.5,663.333,353.5,647.667,353.5,608.583C353.5,569.5,353.5,507,353.5,447.417C353.5,387.833,353.5,331.167,353.5,295.833C353.5,260.5,353.5,246.5,353.862,239.029C354.224,231.557,354.948,230.614,355.781,229.781C356.614,228.948,357.557,228.224,416.445,227.862C475.333,227.5,592.167,227.5,651.055,227.138C709.943,226.776,710.886,226.052,711.719,225.219C712.552,224.386,713.276,223.443,713.638,220.888C714,218.333,714,214.167,716.524,207.257C719.049,200.348,724.097,190.696,726.622,185.87L729.146,181.044" id="my-svg-L_D_E_0_0" class="edge-thickness-normal edge-pattern-solid edge-thickness-normal edge-pattern-solid flowchart-link" style=";" data-edge="true" data-et="edge" data-id="L_D_E_0_0" data-points="W3sieCI6MzUzLjUsInkiOjY3OX0seyJ4IjozNTMuNSwieSI6NjMyfSx7IngiOjM1My41LCJ5Ijo0NDQuNX0seyJ4IjozNTMuNSwieSI6Mjc0LjV9LHsieCI6MzUzLjUsInkiOjIyNy41fSx7IngiOjcxNCwieSI6MjI3LjV9LHsieCI6NzE0LCJ5IjoyMTB9LHsieCI6NzMxLCJ5IjoxNzcuNX1d" data-look="classic" marker-end="url(#my-svg_flowchart-elk-pointEnd)"/><path d="M763.5,210L763.5,215C763.5,220,763.5,230,763.138,235.471C762.776,240.943,762.052,241.886,761.219,242.719C760.386,243.552,759.443,244.276,710.555,244.638C661.667,245,564.833,245,515.945,245.362C467.057,245.724,466.114,246.448,465.281,247.281C464.448,248.114,463.724,249.057,463.362,278.029C463,307,463,364,463,392.5L463,421" id="my-svg-L_E_F_0_0" class="edge-thickness-normal edge-pattern-solid edge-thickness-normal edge-pattern-solid flowchart-link" style=";" data-edge="true" data-et="edge" data-id="L_E_F_0_0" data-points="W3sieCI6NzYzLjUsInkiOjIxMH0seyJ4Ijo3NjMuNSwieSI6MjQ1fSx7IngiOjQ2MywieSI6MjQ1fSx7IngiOjQ2MywieSI6NDI1fV0=" data-look="classic" marker-end="url(#my-svg_flowchart-elk-pointEnd)"/><path d="M797,177.5L799.667,182.917C802.333,188.333,807.667,199.167,810.333,222.5C813,245.833,813,281.667,813,299.583L813,317.5" id="my-svg-L_E_G_0_0" class="edge-thickness-normal edge-pattern-solid edge-thickness-normal edge-pattern-solid flowchart-link" style=";" data-edge="true" data-et="edge" data-id="L_E_G_0_0" data-points="W3sieCI6Nzk3LCJ5IjoxNzcuNX0seyJ4Ijo4MTMsInkiOjIxMH0seyJ4Ijo4MTMsInkiOjMyMS41fV0=" data-look="classic" marker-end="url(#my-svg_flowchart-elk-pointEnd)"/><path d="M463,464L463,492C463,520,463,576,463,630.167C463,684.333,463,736.667,463,772.917C463,809.167,463,829.333,463,839.417L463,849.5" id="my-svg-L_F_A_0_0" class="edge-thickness-normal edge-pattern-dotted edge-thickness-normal edge-pattern-solid flowchart-link" style=";" data-edge="true" data-et="edge" data-id="L_F_A_0_0" data-points="W3sieCI6NDYzLCJ5Ijo0NjR9LHsieCI6NDYzLCJ5Ijo2MzJ9LHsieCI6NDYzLCJ5Ijo3ODl9LHsieCI6NDYzLCJ5Ijo4NTMuNX1d" data-look="classic" marker-end="url(#my-svg_flowchart-elk-pointEnd)"/><path d="M782.75,537.25L780.958,542.292C779.167,547.333,775.583,557.417,773.792,564.542C772,571.667,772,575.833,771.638,578.388C771.276,580.943,770.552,581.886,769.719,582.719C768.886,583.552,767.943,584.276,739.971,584.638C712,585,657,585,629.029,585.362C601.057,585.724,600.114,586.448,599.281,587.281C598.448,588.114,597.724,589.057,597.362,605.695C597,622.333,597,654.667,597,670.833L597,687" id="my-svg-L_G_H_0_0" class="edge-thickness-normal edge-pattern-solid edge-thickness-normal edge-pattern-solid flowchart-link" style=";" data-edge="true" data-et="edge" data-id="L_G_H_0_0" data-points="W3sieCI6NzgyLjc1LCJ5Ijo1MzcuMjV9LHsieCI6NzcyLCJ5Ijo1NjcuNX0seyJ4Ijo3NzIsInkiOjU4NX0seyJ4Ijo1OTcsInkiOjU4NX0seyJ4Ijo1OTcsInkiOjY5MX1d" data-look="classic" marker-end="url(#my-svg_flowchart-elk-pointEnd)"/><path d="M844.25,537.25L845.875,542.292C847.5,547.333,850.75,557.417,852.375,580.375C854,603.333,854,639.167,854,657.083L854,675" id="my-svg-L_G_I_0_0" class="edge-thickness-normal edge-pattern-solid edge-thickness-normal edge-pattern-solid flowchart-link" style=";" data-edge="true" data-et="edge" data-id="L_G_I_0_0" data-points="W3sieCI6ODQ0LjI1LCJ5Ijo1MzcuMjV9LHsieCI6ODU0LCJ5Ijo1NjcuNX0seyJ4Ijo4NTQsInkiOjY3OX1d" data-look="classic" marker-end="url(#my-svg_flowchart-elk-pointEnd)"/><path d="M597,730L597,743.917C597,757.833,597,785.667,596.638,800.055C596.276,814.443,595.552,815.386,594.719,816.219C593.886,817.052,592.943,817.776,578.405,818.138C563.867,818.5,535.733,818.5,521.195,818.862C506.657,819.224,505.714,819.948,504.881,820.781C504.048,821.614,503.324,822.557,502.962,827.362C502.6,832.167,502.6,840.833,502.6,845.167L502.6,849.5" id="my-svg-L_H_A_0_0" class="edge-thickness-normal edge-pattern-dotted edge-thickness-normal edge-pattern-solid flowchart-link" style=";" data-edge="true" data-et="edge" data-id="L_H_A_0_0" data-points="W3sieCI6NTk3LCJ5Ijo3MzB9LHsieCI6NTk3LCJ5Ijo4MTguNX0seyJ4Ijo1MDIuNiwieSI6ODE4LjV9LHsieCI6NTAyLjYsInkiOjg1My41fV0=" data-look="classic" marker-end="url(#my-svg_flowchart-elk-pointEnd)"/></g><g class="edgeLabels"><g class="edgeLabel"><g class="label" data-id="L_A_B_0_0" transform="translate(0, 0)"><foreignObject width="0" height="0"><div xmlns="http://www.w3.org/1999/xhtml" class="labelBkg" style="display: table-cell; white-space: nowrap; line-height: 1.5; max-width: 200px; text-align: center;"><span class="edgeLabel"></span></div></foreignObject></g></g><g class="edgeLabel" transform="translate(121.5, 632)"><g class="label" data-id="L_B_C_0_0" transform="translate(-24, -12)"><foreignObject width="48" height="24"><div xmlns="http://www.w3.org/1999/xhtml" class="labelBkg" style="display: table-cell; white-space: nowrap; line-height: 1.5; max-width: 200px; text-align: center;"><span class="edgeLabel"><p>不完整</p></span></div></foreignObject></g></g><g class="edgeLabel" transform="translate(286.5, 632)"><g class="label" data-id="L_B_D_0_0" transform="translate(-16, -12)"><foreignObject width="32" height="24"><div xmlns="http://www.w3.org/1999/xhtml" class="labelBkg" style="display: table-cell; white-space: nowrap; line-height: 1.5; max-width: 200px; text-align: center;"><span class="edgeLabel"><p>完整</p></span></div></foreignObject></g></g><g class="edgeLabel" transform="translate(121.5, 789)"><g class="label" data-id="L_C_A_0_0" transform="translate(-16, -12)"><foreignObject width="32" height="24"><div xmlns="http://www.w3.org/1999/xhtml" class="labelBkg" style="display: table-cell; white-space: nowrap; line-height: 1.5; max-width: 200px; text-align: center;"><span class="edgeLabel"><p>返回</p></span></div></foreignObject></g></g><g class="edgeLabel"><g class="label" data-id="L_D_E_0_0" transform="translate(0, 0)"><foreignObject width="0" height="0"><div xmlns="http://www.w3.org/1999/xhtml" class="labelBkg" style="display: table-cell; white-space: nowrap; line-height: 1.5; max-width: 200px; text-align: center;"><span class="edgeLabel"></span></div></foreignObject></g></g><g class="edgeLabel" transform="translate(463, 274.5)"><g class="label" data-id="L_E_F_0_0" transform="translate(-16, -12)"><foreignObject width="32" height="24"><div xmlns="http://www.w3.org/1999/xhtml" class="labelBkg" style="display: table-cell; white-space: nowrap; line-height: 1.5; max-width: 200px; text-align: center;"><span class="edgeLabel"><p>错误</p></span></div></foreignObject></g></g><g class="edgeLabel" transform="translate(813, 274.5)"><g class="label" data-id="L_E_G_0_0" transform="translate(-16, -12)"><foreignObject width="32" height="24"><div xmlns="http://www.w3.org/1999/xhtml" class="labelBkg" style="display: table-cell; white-space: nowrap; line-height: 1.5; max-width: 200px; text-align: center;"><span class="edgeLabel"><p>正确</p></span></div></foreignObject></g></g><g class="edgeLabel" transform="translate(463, 710.5)"><g class="label" data-id="L_F_A_0_0" transform="translate(-16, -12)"><foreignObject width="32" height="24"><div xmlns="http://www.w3.org/1999/xhtml" class="labelBkg" style="display: table-cell; white-space: nowrap; line-height: 1.5; max-width: 200px; text-align: center;"><span class="edgeLabel"><p>返回</p></span></div></foreignObject></g></g><g class="edgeLabel" transform="translate(597, 632)"><g class="label" data-id="L_G_H_0_0" transform="translate(-24, -12)"><foreignObject width="48" height="24"><div xmlns="http://www.w3.org/1999/xhtml" class="labelBkg" style="display: table-cell; white-space: nowrap; line-height: 1.5; max-width: 200px; text-align: center;"><span class="edgeLabel"><p>无权限</p></span></div></foreignObject></g></g><g class="edgeLabel" transform="translate(854, 632)"><g class="label" data-id="L_G_I_0_0" transform="translate(-24, -12)"><foreignObject width="48" height="24"><div xmlns="http://www.w3.org/1999/xhtml" class="labelBkg" style="display: table-cell; white-space: nowrap; line-height: 1.5; max-width: 200px; text-align: center;"><span class="edgeLabel"><p>有权限</p></span></div></foreignObject></g></g><g class="edgeLabel" transform="translate(597, 789)"><g class="label" data-id="L_H_A_0_0" transform="translate(-16, -12)"><foreignObject width="32" height="24"><div xmlns="http://www.w3.org/1999/xhtml" class="labelBkg" style="display: table-cell; white-space: nowrap; line-height: 1.5; max-width: 200px; text-align: center;"><span class="edgeLabel"><p>返回</p></span></div></foreignObject></g></g></g></svg>