<svg id="my-svg" width="100%" xmlns="http://www.w3.org/2000/svg" xmlns:xlink="http://www.w3.org/1999/xlink" class="flowchart" style="max-width: 360px; background-color: white;" viewBox="4 4 360 495" role="graphics-document document" aria-roledescription="flowchart-elk"><style>#my-svg{font-family:"trebuchet ms",verdana,arial,sans-serif;font-size:16px;fill:#333;}@keyframes edge-animation-frame{from{stroke-dashoffset:0;}}@keyframes dash{to{stroke-dashoffset:0;}}#my-svg .edge-animation-slow{stroke-dasharray:9,5!important;stroke-dashoffset:900;animation:dash 50s linear infinite;stroke-linecap:round;}#my-svg .edge-animation-fast{stroke-dasharray:9,5!important;stroke-dashoffset:900;animation:dash 20s linear infinite;stroke-linecap:round;}#my-svg .error-icon{fill:#552222;}#my-svg .error-text{fill:#552222;stroke:#552222;}#my-svg .edge-thickness-normal{stroke-width:1px;}#my-svg .edge-thickness-thick{stroke-width:3.5px;}#my-svg .edge-pattern-solid{stroke-dasharray:0;}#my-svg .edge-thickness-invisible{stroke-width:0;fill:none;}#my-svg .edge-pattern-dashed{stroke-dasharray:3;}#my-svg .edge-pattern-dotted{stroke-dasharray:2;}#my-svg .marker{fill:#333333;stroke:#333333;}#my-svg .marker.cross{stroke:#333333;}#my-svg svg{font-family:"trebuchet ms",verdana,arial,sans-serif;font-size:16px;}#my-svg p{margin:0;}#my-svg .label{font-family:"trebuchet ms",verdana,arial,sans-serif;color:#333;}#my-svg .cluster-label text{fill:#333;}#my-svg .cluster-label span{color:#333;}#my-svg .cluster-label span p{background-color:transparent;}#my-svg .label text,#my-svg span{fill:#333;color:#333;}#my-svg .node rect,#my-svg .node circle,#my-svg .node ellipse,#my-svg .node polygon,#my-svg .node path{fill:#ECECFF;stroke:#9370DB;stroke-width:1px;}#my-svg .rough-node .label text,#my-svg .node .label text,#my-svg .image-shape .label,#my-svg .icon-shape .label{text-anchor:middle;}#my-svg .node .katex path{fill:#000;stroke:#000;stroke-width:1px;}#my-svg .rough-node .label,#my-svg .node .label,#my-svg .image-shape .label,#my-svg .icon-shape .label{text-align:center;}#my-svg .node.clickable{cursor:pointer;}#my-svg .root .anchor path{fill:#333333!important;stroke-width:0;stroke:#333333;}#my-svg .arrowheadPath{fill:#333333;}#my-svg .edgePath .path{stroke:#333333;stroke-width:1px;}#my-svg .flowchart-link{stroke:#333333;fill:none;}#my-svg .edgeLabel{background-color:rgba(232,232,232, 0.8);text-align:center;}#my-svg .edgeLabel p{background-color:rgba(232,232,232, 0.8);}#my-svg .edgeLabel rect{opacity:0.5;background-color:rgba(232,232,232, 0.8);fill:rgba(232,232,232, 0.8);}#my-svg .labelBkg{background-color:rgba(232, 232, 232, 0.5);}#my-svg .cluster rect{fill:#ffffde;stroke:#aaaa33;stroke-width:1px;}#my-svg .cluster text{fill:#333;}#my-svg .cluster span{color:#333;}#my-svg div.mermaidTooltip{position:absolute;text-align:center;max-width:200px;padding:2px;font-family:"trebuchet ms",verdana,arial,sans-serif;font-size:12px;background:hsl(80, 100%, 96.2745098039%);border:1px solid #aaaa33;border-radius:2px;pointer-events:none;z-index:100;}#my-svg .flowchartTitleText{text-anchor:middle;font-size:18px;fill:#333;}#my-svg rect.text{fill:none;stroke-width:0;}#my-svg .icon-shape,#my-svg .image-shape{background-color:rgba(232,232,232, 0.8);text-align:center;}#my-svg .icon-shape p,#my-svg .image-shape p{background-color:rgba(232,232,232, 0.8);padding:2px;}#my-svg .icon-shape .label rect,#my-svg .image-shape .label rect{opacity:0.5;background-color:rgba(232,232,232, 0.8);fill:rgba(232,232,232, 0.8);}#my-svg .label-icon{display:inline-block;height:1em;overflow:visible;vertical-align:-0.125em;}#my-svg .node .label-icon path{fill:currentColor;stroke:revert;stroke-width:revert;}#my-svg .node .neo-node{stroke:#9370DB;}#my-svg [data-look="neo"].node rect,#my-svg [data-look="neo"].cluster rect,#my-svg [data-look="neo"].node polygon{stroke:#9370DB;filter:drop-shadow(1px 2px 2px rgba(185, 185, 185, 1));}#my-svg [data-look="neo"].node path{stroke:#9370DB;stroke-width:1px;}#my-svg [data-look="neo"].node .outer-path{filter:drop-shadow(1px 2px 2px rgba(185, 185, 185, 1));}#my-svg [data-look="neo"].node .neo-line path{stroke:#9370DB;filter:none;}#my-svg [data-look="neo"].node circle{stroke:#9370DB;filter:drop-shadow(1px 2px 2px rgba(185, 185, 185, 1));}#my-svg [data-look="neo"].node circle .state-start{fill:#000000;}#my-svg [data-look="neo"].icon-shape .icon{fill:#9370DB;filter:drop-shadow(1px 2px 2px rgba(185, 185, 185, 1));}#my-svg [data-look="neo"].icon-shape .icon-neo path{stroke:#9370DB;filter:drop-shadow(1px 2px 2px rgba(185, 185, 185, 1));}#my-svg :root{--mermaid-font-family:"trebuchet ms",verdana,arial,sans-serif;}</style><g><marker id="my-svg_flowchart-elk-pointEnd" class="marker flowchart-elk" viewBox="0 0 10 10" refX="5" refY="5" markerUnits="userSpaceOnUse" markerWidth="8" markerHeight="8" orient="auto"><path d="M 0 0 L 10 5 L 0 10 z" class="arrowMarkerPath" style="stroke-width: 1; stroke-dasharray: 1, 0;"/></marker><marker id="my-svg_flowchart-elk-pointStart" class="marker flowchart-elk" viewBox="0 0 10 10" refX="4.5" refY="5" markerUnits="userSpaceOnUse" markerWidth="8" markerHeight="8" orient="auto"><path d="M 0 5 L 10 10 L 10 0 z" class="arrowMarkerPath" style="stroke-width: 1; stroke-dasharray: 1, 0;"/></marker><marker id="my-svg_flowchart-elk-pointEnd-margin" class="marker flowchart-elk" viewBox="0 0 11.5 14" refX="11.5" refY="7" markerUnits="userSpaceOnUse" markerWidth="10.5" markerHeight="14" orient="auto"><path d="M 0 0 L 11.5 7 L 0 14 z" class="arrowMarkerPath" style="stroke-width: 0; stroke-dasharray: 1, 0;"/></marker><marker id="my-svg_flowchart-elk-pointStart-margin" class="marker flowchart-elk" viewBox="0 0 11.5 14" refX="1" refY="7" markerUnits="userSpaceOnUse" markerWidth="11.5" markerHeight="14" orient="auto"><polygon points="0,7 11.5,14 11.5,0" class="arrowMarkerPath" style="stroke-width: 0; stroke-dasharray: 1, 0;"/></marker><marker id="my-svg_flowchart-elk-circleEnd" class="marker flowchart-elk" viewBox="0 0 10 10" refX="11" refY="5" markerUnits="userSpaceOnUse" markerWidth="11" markerHeight="11" orient="auto"><circle cx="5" cy="5" r="5" class="arrowMarkerPath" style="stroke-width: 1; stroke-dasharray: 1, 0;"/></marker><marker id="my-svg_flowchart-elk-circleStart" class="marker flowchart-elk" viewBox="0 0 10 10" refX="-1" refY="5" markerUnits="userSpaceOnUse" markerWidth="11" markerHeight="11" orient="auto"><circle cx="5" cy="5" r="5" class="arrowMarkerPath" style="stroke-width: 1; stroke-dasharray: 1, 0;"/></marker><marker id="my-svg_flowchart-elk-circleEnd-margin" class="marker flowchart-elk" viewBox="0 0 10 10" refY="5" refX="12.25" markerUnits="userSpaceOnUse" markerWidth="14" markerHeight="14" orient="auto"><circle cx="5" cy="5" r="5" class="arrowMarkerPath" style="stroke-width: 0; stroke-dasharray: 1, 0;"/></marker><marker id="my-svg_flowchart-elk-circleStart-margin" class="marker flowchart-elk" viewBox="0 0 10 10" refX="-2" refY="5" markerUnits="userSpaceOnUse" markerWidth="14" markerHeight="14" orient="auto"><circle cx="5" cy="5" r="5" class="arrowMarkerPath" style="stroke-width: 0; stroke-dasharray: 1, 0;"/></marker><marker id="my-svg_flowchart-elk-crossEnd" class="marker cross flowchart-elk" viewBox="0 0 11 11" refX="12" refY="5.2" markerUnits="userSpaceOnUse" markerWidth="11" markerHeight="11" orient="auto"><path d="M 1,1 l 9,9 M 10,1 l -9,9" class="arrowMarkerPath" style="stroke-width: 2; stroke-dasharray: 1, 0;"/></marker><marker id="my-svg_flowchart-elk-crossStart" class="marker cross flowchart-elk" viewBox="0 0 11 11" refX="-1" refY="5.2" markerUnits="userSpaceOnUse" markerWidth="11" markerHeight="11" orient="auto"><path d="M 1,1 l 9,9 M 10,1 l -9,9" class="arrowMarkerPath" style="stroke-width: 2; stroke-dasharray: 1, 0;"/></marker><marker id="my-svg_flowchart-elk-crossEnd-margin" class="marker cross flowchart-elk" viewBox="0 0 15 15" refX="17.7" refY="7.5" markerUnits="userSpaceOnUse" markerWidth="12" markerHeight="12" orient="auto"><path d="M 1,1 L 14,14 M 1,14 L 14,1" class="arrowMarkerPath" style="stroke-width: 2.5;"/></marker><marker id="my-svg_flowchart-elk-crossStart-margin" class="marker cross flowchart-elk" viewBox="0 0 15 15" refX="-3.5" refY="7.5" markerUnits="userSpaceOnUse" markerWidth="12" markerHeight="12" orient="auto"><path d="M 1,1 L 14,14 M 1,14 L 14,1" class="arrowMarkerPath" style="stroke-width: 2.5; stroke-dasharray: 1, 0;"/></marker></g><defs><filter id="my-svg-drop-shadow" height="130%" width="130%"><feDropShadow dx="4" dy="4" stdDeviation="0" flood-opacity="0.06" flood-color="#000000"/></filter></defs><defs><filter id="my-svg-drop-shadow-small" height="150%" width="150%"><feDropShadow dx="2" dy="2" stdDeviation="0" flood-opacity="0.06" flood-color="#000000"/></filter></defs><g class="subgraphs"/><g class="nodes"><g class="node default" id="my-svg-flowchart-A-0" data-look="classic" transform="translate(149.5, 31.5)"><g class="basic label-container outer-path"><path d="M-8.875 -19.5 C-2.993123589063792 -19.5, 2.8887528218724157 -19.5, 8.875 -19.5 C8.875 -19.5, 8.874999999999998 -19.5, 8.874999999999998 -19.5 C9.35398581355506 -19.484639857248617, 9.832971627110123 -19.469279714497233, 10.1243692896239 -19.45993515863156 C10.594012992310713 -19.414629195462553, 11.063656694997526 -19.369323232293542, 11.368604652847864 -19.3399052695533 C11.637460927022902 -19.296438672156224, 11.90631720119794 -19.25297207475915, 12.602593259676757 -19.140403561325776 C13.075694606160267 -19.03242126626572, 13.54879595264378 -18.924438971205667, 13.82126438623539 -18.862249829261074 C14.138164869374442 -18.768195429309984, 14.455065352513495 -18.674141029358896, 15.019610251460602 -18.50658706670804 C15.319904856065312 -18.396075876320612, 15.620199460670023 -18.28556468593318, 16.192706595147794 -18.074876768247425 C16.466477154416843 -17.953686662774114, 16.740247713685893 -17.832496557300804, 17.33573291279238 -17.568892924097174 C17.596865601994512 -17.432660167403892, 17.85799829119664 -17.296427410710614, 18.443992264076783 -16.990714730406097 C18.82183659188342 -16.761663278429975, 19.199680919690064 -16.53261182645385, 19.512930573605697 -16.342718045390892 C19.8710276441973 -16.092925030718533, 20.229124714788906 -15.84313201604617, 20.538155344578712 -15.627565626425154 C20.874392617949326 -15.359425348561711, 21.210629891319943 -15.091285070698266, 21.51545370850187 -14.848196188198123 C21.73045115528521 -14.652941195550214, 21.94544860206855 -14.457686202902307, 22.440809736767985 -14.007812326905688 C22.786242618842145 -13.651124515597063, 23.131675500916305 -13.29443670428844, 23.310420942968648 -13.10986736009568 C23.559263887123542 -12.8175622783267, 23.808106831278437 -12.525257196557716, 24.120713908126582 -12.158051136245305 C24.355023316947573 -11.84409787445145, 24.589332725768564 -11.530144612657592, 24.868358964640635 -11.156274872382312 C25.097875711323667 -10.803675515601133, 25.3273924580067 -10.451076158819957, 25.550283878604247 -10.108655082055241 C25.695943784335018 -9.850021169765403, 25.84160369006579 -9.591387257475565, 26.1636864742735 -9.019496659696287 C26.295461552248742 -8.745862890745707, 26.427236630223987 -8.472229121795126, 26.70604614880834 -7.893275190886684 C26.85090842444772 -7.535462569335846, 26.995770700087103 -7.177649947785007, 27.175134229970325 -6.734618561215508 C27.2983611595118 -6.363478682981521, 27.421588089053273 -5.992338804747534, 27.56902313421488 -5.548287939305138 C27.64177648997233 -5.270847862298148, 27.714529845729775 -4.993407785291159, 27.88609428754556 -4.339158212148133 C27.954998697075844 -3.985348632162239, 28.023903106606127 -3.631539052176345, 28.125044776581777 -3.1121979531509023 C28.188578469282888 -2.619443178707794, 28.252112161983995 -2.1266884042646854, 28.284892702509367 -1.872449005199798 C28.301595172423397 -1.6122945542977474, 28.318297642337424 -1.3521401033956968, 28.364981215913414 -0.6250057626472757 C28.364981215913414 -0.15361883135236137, 28.364981215913414 0.31776809994255295, 28.364981215913414 0.625005762647271 C28.334695963807743 1.096723010008602, 28.304410711702072 1.5684402573699332, 28.284892702509367 1.8724490051997846 C28.22879005358335 2.307570071548857, 28.17268740465733 2.7426911378979293, 28.125044776581777 3.1121979531508885 C28.045631866571743 3.51996646212794, 27.96621895656171 3.927734971104992, 27.88609428754556 4.339158212148129 C27.759307544625667 4.822651012623656, 27.632520801705777 5.306143813099184, 27.569023134214884 5.548287939305125 C27.411553258893797 6.022562114354819, 27.25408338357271 6.496836289404512, 27.17513422997033 6.734618561215495 C27.063228207685746 7.011028599814171, 26.951322185401164 7.287438638412848, 26.706046148808344 7.893275190886679 C26.567465165589795 8.18104156769803, 26.428884182371245 8.468807944509381, 26.163686474273504 9.019496659696284 C25.98811039103563 9.331249774491448, 25.812534307797755 9.643002889286613, 25.55028387860425 10.108655082055236 C25.32147748175029 10.460163150743327, 25.092671084896324 10.811671219431418, 24.86835896464064 11.156274872382301 C24.649008704464475 11.450184237798572, 24.429658444288304 11.744093603214843, 24.120713908126582 12.158051136245302 C23.822841286614427 12.507949266905799, 23.524968665102275 12.857847397566294, 23.31042094296866 13.10986736009567 C22.98083160572309 13.45019541058955, 22.651242268477525 13.790523461083431, 22.44080973676799 14.007812326905684 C22.119274393062494 14.299822218700012, 21.797739049357 14.591832110494337, 21.515453708501887 14.848196188198111 C21.288336068146734 15.029316462527111, 21.061218427791577 15.210436736856112, 20.538155344578715 15.627565626425152 C20.150908084518225 15.897692551379645, 19.763660824457737 16.167819476334138, 19.512930573605708 16.34271804539089 C19.151870687574956 16.56159467012614, 18.790810801544204 16.780471294861393, 18.443992264076787 16.990714730406093 C18.092009494812157 17.174343915675728, 17.740026725547523 17.35797310094536, 17.335732912792388 17.56889292409717 C16.970804206405017 17.730436037189406, 16.605875500017643 17.891979150281642, 16.192706595147804 18.07487676824742 C15.793422791948638 18.22181689876373, 15.394138988749473 18.36875702928004, 15.019610251460616 18.506587066708033 C14.731948401030849 18.591963593947725, 14.444286550601081 18.677340121187413, 13.821264386235413 18.86224982926107 C13.50670421957025 18.93404613460547, 13.192144052905086 19.005842439949873, 12.602593259676766 19.140403561325773 C12.268126576682898 19.194477540804357, 11.933659893689029 19.24855152028294, 11.368604652847878 19.3399052695533 C11.073758825906388 19.368348691874356, 10.7789129989649 19.396792114195414, 10.1243692896239 19.45993515863156 C9.706575407518764 19.473332995244213, 9.28878152541363 19.486730831856864, 8.875000000000004 19.5 C8.875000000000002 19.5, 8.875000000000002 19.5, 8.875 19.5 C1.9407665634021916 19.5, -4.993466873195617 19.5, -8.874999999999996 19.5 C-9.33644830333665 19.485202251066628, -9.797896606673307 19.470404502133256, -10.124369289623893 19.45993515863156 C-10.540469456736878 19.419794475943835, -10.95656962384986 19.379653793256114, -11.368604652847871 19.3399052695533 C-11.758447330633567 19.276878528684026, -12.148290008419265 19.213851787814754, -12.602593259676759 19.140403561325773 C-12.998089061037653 19.050134225516445, -13.393584862398546 18.95986488970712, -13.821264386235388 18.862249829261074 C-14.214252005013428 18.74561316684186, -14.607239623791468 18.628976504422642, -15.019610251460593 18.506587066708043 C-15.343992737875945 18.38721131314836, -15.668375224291296 18.267835559588676, -16.192706595147797 18.074876768247425 C-16.54840111167488 17.91742135708383, -16.90409562820196 17.759965945920232, -17.33573291279238 17.568892924097174 C-17.740940908107824 17.357496172489217, -18.146148903423267 17.146099420881256, -18.44399226407678 16.990714730406097 C-18.749939573353394 16.805247673576655, -19.055886882630013 16.61978061674721, -19.512930573605686 16.3427180453909 C-19.73861025249748 16.18529367091183, -19.964289931389274 16.027869296432755, -20.538155344578712 15.627565626425156 C-20.769508978394914 15.443067260035491, -21.00086261221111 15.258568893645826, -21.51545370850187 14.848196188198125 C-21.790845522887075 14.598092628841602, -22.066237337272284 14.347989069485081, -22.440809736767974 14.007812326905697 C-22.62074484421 13.822014555524742, -22.800679951652032 13.63621678414379, -23.310420942968655 13.109867360095677 C-23.61474986374037 12.752385292951063, -23.919078784512088 12.39490322580645, -24.12071390812658 12.158051136245307 C-24.376201703279975 11.815720766156716, -24.63168949843337 11.473390396068126, -24.868358964640635 11.156274872382316 C-25.125414102961123 10.761369150952438, -25.382469241281612 10.366463429522561, -25.550283878604244 10.108655082055249 C-25.72515570232649 9.798152451344096, -25.90002752604873 9.487649820632944, -26.1636864742735 9.019496659696289 C-26.28257222468421 8.772627855220895, -26.401457975094917 8.525759050745503, -26.70604614880834 7.893275190886686 C-26.86539882356602 7.499671003360836, -27.024751498323702 7.106066815834987, -27.175134229970325 6.73461856121551 C-27.281283002680134 6.414915370323731, -27.387431775389942 6.095212179431953, -27.56902313421488 5.5482879393051325 C-27.65497156936268 5.2205293057991495, -27.74092000451048 4.8927706722931665, -27.886094287545557 4.339158212148136 C-27.960601290217276 3.9565805004894514, -28.035108292888996 3.574002788830767, -28.125044776581777 3.112197953150904 C-28.171014536074402 2.755665576281891, -28.216984295567023 2.399133199412878, -28.284892702509364 1.872449005199809 C-28.30622555556995 1.540172599212119, -28.327558408630537 1.2078961932244288, -28.364981215913414 0.6250057626472781 C-28.364981215913414 0.3127200521075333, -28.364981215913414 0.00043434156778843214, -28.364981215913414 -0.6250057626472687 C-28.344067639114634 -0.9507516024236108, -28.323154062315854 -1.2764974421999529, -28.284892702509367 -1.8724490051997822 C-28.24144270661596 -2.2094385931768903, -28.19799271072255 -2.5464281811539986, -28.125044776581777 -3.112197953150895 C-28.033072362758553 -3.584456859756602, -27.94109994893533 -4.056715766362309, -27.88609428754556 -4.339158212148126 C-27.802459696523854 -4.658093155174932, -27.718825105502148 -4.977028098201738, -27.569023134214884 -5.548287939305123 C-27.45495158094549 -5.891853282918718, -27.340880027676096 -6.235418626532313, -27.175134229970332 -6.734618561215485 C-27.024511985373543 -7.106658417452546, -26.873889740776754 -7.4786982736896075, -26.706046148808344 -7.893275190886676 C-26.52735896869795 -8.264322943679089, -26.348671788587552 -8.635370696471501, -26.163686474273504 -9.019496659696282 C-25.984162525446024 -9.338259609610528, -25.804638576618547 -9.657022559524776, -25.550283878604247 -10.108655082055243 C-25.40629191749361 -10.329865401576667, -25.26229995638297 -10.551075721098092, -24.86835896464064 -11.156274872382308 C-24.672323227126252 -11.418944901428503, -24.476287489611863 -11.6816149304747, -24.120713908126586 -12.158051136245302 C-23.89030939689215 -12.42869738552936, -23.659904885657717 -12.699343634813417, -23.310420942968662 -13.10986736009567 C-22.985563369607114 -13.445309475894259, -22.660705796245566 -13.780751591692848, -22.440809736767996 -14.007812326905677 C-22.198131674471185 -14.228206122173967, -21.955453612174374 -14.448599917442257, -21.515453708501887 -14.848196188198107 C-21.31829361151177 -15.005426118897201, -21.121133514521652 -15.162656049596295, -20.53815534457872 -15.627565626425149 C-20.25103935051006 -15.827845314836386, -19.963923356441395 -16.028125003247624, -19.51293057360571 -16.342718045390885 C-19.269224844934605 -16.490453890285142, -19.025519116263496 -16.638189735179395, -18.44399226407679 -16.99071473040609 C-18.0552115144039 -17.19354139848448, -17.66643076473101 -17.396368066562875, -17.335732912792388 -17.56889292409717 C-17.056839879578067 -17.69235059683326, -16.777946846363747 -17.815808269569356, -16.192706595147804 -18.07487676824742 C-15.916919213549994 -18.176369074026024, -15.641131831952183 -18.277861379804627, -15.019610251460618 -18.506587066708033 C-14.654795852300612 -18.614862065428863, -14.289981453140607 -18.723137064149697, -13.821264386235413 -18.862249829261067 C-13.381846788479363 -18.962544028481084, -12.942429190723315 -19.062838227701096, -12.602593259676768 -19.140403561325773 C-12.291856786006067 -19.190641024591507, -11.981120312335364 -19.240878487857245, -11.36860465284788 -19.3399052695533 C-10.899549267192558 -19.385154478485834, -10.430493881537236 -19.430403687418366, -10.124369289623903 -19.45993515863156 C-9.629785955709165 -19.475795483502147, -9.135202621794427 -19.49165580837273, -8.875000000000005 -19.5 C-8.875000000000004 -19.5, -8.875000000000002 -19.5, -8.875 -19.5" stroke="none" stroke-width="0" fill="#ECECFF" style=""/><path d="M-8.875 -19.5 C-3.5942721645095626 -19.5, 1.686455670980875 -19.5, 8.875 -19.5 M-8.875 -19.5 C-1.9208508826973247 -19.5, 5.0332982346053505 -19.5, 8.875 -19.5 M8.875 -19.5 C8.875 -19.5, 8.875 -19.5, 8.874999999999998 -19.5 M8.875 -19.5 C8.875 -19.5, 8.874999999999998 -19.5, 8.874999999999998 -19.5 M8.874999999999998 -19.5 C9.282101718243629 -19.48694504027135, 9.68920343648726 -19.473890080542702, 10.1243692896239 -19.45993515863156 M8.874999999999998 -19.5 C9.17739198281521 -19.490302877681405, 9.479783965630425 -19.48060575536281, 10.1243692896239 -19.45993515863156 M10.1243692896239 -19.45993515863156 C10.453352785370623 -19.428198516457414, 10.782336281117347 -19.39646187428327, 11.368604652847864 -19.3399052695533 M10.1243692896239 -19.45993515863156 C10.612644288687926 -19.412831856708454, 11.100919287751953 -19.36572855478535, 11.368604652847864 -19.3399052695533 M11.368604652847864 -19.3399052695533 C11.622985037790244 -19.298779021665162, 11.877365422732625 -19.25765277377703, 12.602593259676757 -19.140403561325776 M11.368604652847864 -19.3399052695533 C11.688782099681132 -19.288141462962482, 12.008959546514403 -19.236377656371662, 12.602593259676757 -19.140403561325776 M12.602593259676757 -19.140403561325776 C12.941595470299028 -19.06302851894741, 13.280597680921298 -18.985653476569038, 13.82126438623539 -18.862249829261074 M12.602593259676757 -19.140403561325776 C13.05631591805863 -19.036844325367163, 13.510038576440502 -18.93328508940855, 13.82126438623539 -18.862249829261074 M13.82126438623539 -18.862249829261074 C14.094579295843475 -18.78113139874863, 14.367894205451561 -18.700012968236187, 15.019610251460602 -18.50658706670804 M13.82126438623539 -18.862249829261074 C14.290688667137461 -18.722927166747674, 14.760112948039533 -18.58360450423427, 15.019610251460602 -18.50658706670804 M15.019610251460602 -18.50658706670804 C15.432825327957804 -18.354520098838773, 15.846040404455007 -18.20245313096951, 16.192706595147794 -18.074876768247425 M15.019610251460602 -18.50658706670804 C15.273777964739047 -18.413050998720987, 15.527945678017494 -18.31951493073393, 16.192706595147794 -18.074876768247425 M16.192706595147794 -18.074876768247425 C16.552326017009698 -17.915683917920283, 16.9119454388716 -17.756491067593146, 17.33573291279238 -17.568892924097174 M16.192706595147794 -18.074876768247425 C16.538979838490405 -17.921591875250456, 16.885253081833014 -17.76830698225349, 17.33573291279238 -17.568892924097174 M17.33573291279238 -17.568892924097174 C17.701161877543104 -17.378248867255145, 18.066590842293827 -17.187604810413116, 18.443992264076783 -16.990714730406097 M17.33573291279238 -17.568892924097174 C17.761643022694752 -17.346695892569553, 18.187553132597124 -17.124498861041932, 18.443992264076783 -16.990714730406097 M18.443992264076783 -16.990714730406097 C18.698609898203745 -16.836364024299026, 18.95322753233071 -16.682013318191956, 19.512930573605697 -16.342718045390892 M18.443992264076783 -16.990714730406097 C18.75807830310159 -16.800313927774813, 19.0721643421264 -16.60991312514353, 19.512930573605697 -16.342718045390892 M19.512930573605697 -16.342718045390892 C19.72170521105495 -16.197085896014688, 19.930479848504206 -16.05145374663848, 20.538155344578712 -15.627565626425154 M19.512930573605697 -16.342718045390892 C19.777839829033788 -16.157928816541098, 20.042749084461878 -15.9731395876913, 20.538155344578712 -15.627565626425154 M20.538155344578712 -15.627565626425154 C20.827610058491516 -15.396733194793123, 21.11706477240432 -15.165900763161092, 21.51545370850187 -14.848196188198123 M20.538155344578712 -15.627565626425154 C20.80433134503199 -15.415297349304513, 21.070507345485268 -15.203029072183874, 21.51545370850187 -14.848196188198123 M21.51545370850187 -14.848196188198123 C21.761268221704935 -14.624953951202716, 22.007082734908003 -14.401711714207307, 22.440809736767985 -14.007812326905688 M21.51545370850187 -14.848196188198123 C21.746045191022485 -14.638779104889197, 21.9766366735431 -14.429362021580271, 22.440809736767985 -14.007812326905688 M22.440809736767985 -14.007812326905688 C22.773346174226106 -13.664441153480917, 23.10588261168423 -13.321069980056148, 23.310420942968648 -13.10986736009568 M22.440809736767985 -14.007812326905688 C22.758763446589974 -13.679499017029428, 23.076717156411963 -13.35118570715317, 23.310420942968648 -13.10986736009568 M23.310420942968648 -13.10986736009568 C23.590333717896204 -12.781065887177673, 23.870246492823764 -12.452264414259666, 24.120713908126582 -12.158051136245305 M23.310420942968648 -13.10986736009568 C23.493977410053564 -12.894251489198878, 23.677533877138483 -12.678635618302074, 24.120713908126582 -12.158051136245305 M24.120713908126582 -12.158051136245305 C24.36951228234802 -11.824683980786753, 24.618310656569456 -11.491316825328202, 24.868358964640635 -11.156274872382312 M24.120713908126582 -12.158051136245305 C24.4170194827734 -11.761028660211736, 24.71332505742022 -11.364006184178164, 24.868358964640635 -11.156274872382312 M24.868358964640635 -11.156274872382312 C25.009316745312454 -10.939725868806443, 25.150274525984273 -10.723176865230572, 25.550283878604247 -10.108655082055241 M24.868358964640635 -11.156274872382312 C25.08182538092849 -10.82833313320531, 25.295291797216347 -10.50039139402831, 25.550283878604247 -10.108655082055241 M25.550283878604247 -10.108655082055241 C25.761098250937852 -9.734332816706907, 25.97191262327146 -9.36001055135857, 26.1636864742735 -9.019496659696287 M25.550283878604247 -10.108655082055241 C25.688828185697982 -9.862655635677953, 25.82737249279172 -9.616656189300663, 26.1636864742735 -9.019496659696287 M26.1636864742735 -9.019496659696287 C26.357324173887893 -8.617403833263957, 26.55096187350228 -8.215311006831628, 26.70604614880834 -7.893275190886684 M26.1636864742735 -9.019496659696287 C26.278097316231793 -8.781920098370033, 26.39250815819009 -8.54434353704378, 26.70604614880834 -7.893275190886684 M26.70604614880834 -7.893275190886684 C26.826167232949395 -7.596573790675112, 26.946288317090445 -7.29987239046354, 27.175134229970325 -6.734618561215508 M26.70604614880834 -7.893275190886684 C26.849337845338077 -7.5393419301017515, 26.992629541867814 -7.185408669316818, 27.175134229970325 -6.734618561215508 M27.175134229970325 -6.734618561215508 C27.313704557917802 -6.317266811621188, 27.45227488586528 -5.899915062026867, 27.56902313421488 -5.548287939305138 M27.175134229970325 -6.734618561215508 C27.299209176686645 -6.36092459036407, 27.42328412340297 -5.9872306195126335, 27.56902313421488 -5.548287939305138 M27.56902313421488 -5.548287939305138 C27.666813616959672 -5.175370445935933, 27.76460409970446 -4.802452952566727, 27.88609428754556 -4.339158212148133 M27.56902313421488 -5.548287939305138 C27.635333254054853 -5.295418713367592, 27.701643373894825 -5.042549487430046, 27.88609428754556 -4.339158212148133 M27.88609428754556 -4.339158212148133 C27.956606937207905 -3.977090658985779, 28.02711958687025 -3.615023105823424, 28.125044776581777 -3.1121979531509023 M27.88609428754556 -4.339158212148133 C27.94605460819018 -4.031274638256265, 28.0060149288348 -3.7233910643643986, 28.125044776581777 -3.1121979531509023 M28.125044776581777 -3.1121979531509023 C28.17697040680437 -2.709473019019965, 28.22889603702696 -2.3067480848890276, 28.284892702509367 -1.872449005199798 M28.125044776581777 -3.1121979531509023 C28.180515367872662 -2.6819790010060283, 28.235985959163546 -2.2517600488611538, 28.284892702509367 -1.872449005199798 M28.284892702509367 -1.872449005199798 C28.313628097428527 -1.424872034540575, 28.342363492347687 -0.9772950638813519, 28.364981215913414 -0.6250057626472757 M28.284892702509367 -1.872449005199798 C28.31622919226882 -1.3843578828370307, 28.347565682028275 -0.8962667604742632, 28.364981215913414 -0.6250057626472757 M28.364981215913414 -0.6250057626472757 C28.364981215913414 -0.29244681433832603, 28.364981215913414 0.04011213397062363, 28.364981215913414 0.625005762647271 M28.364981215913414 -0.6250057626472757 C28.364981215913414 -0.2976906289411862, 28.364981215913414 0.029624504764903303, 28.364981215913414 0.625005762647271 M28.364981215913414 0.625005762647271 C28.34108384679354 0.9972265762984727, 28.317186477673665 1.3694473899496744, 28.284892702509367 1.8724490051997846 M28.364981215913414 0.625005762647271 C28.338809878029263 1.032645475316649, 28.312638540145112 1.440285187986027, 28.284892702509367 1.8724490051997846 M28.284892702509367 1.8724490051997846 C28.245671847725063 2.17663820987304, 28.20645099294076 2.4808274145462956, 28.125044776581777 3.1121979531508885 M28.284892702509367 1.8724490051997846 C28.23361920039078 2.2701161625333137, 28.182345698272197 2.6677833198668424, 28.125044776581777 3.1121979531508885 M28.125044776581777 3.1121979531508885 C28.052059005098286 3.4869644641703488, 27.9790732336148 3.8617309751898086, 27.88609428754556 4.339158212148129 M28.125044776581777 3.1121979531508885 C28.045088492532262 3.52275657297853, 27.96513220848275 3.933315192806172, 27.88609428754556 4.339158212148129 M27.88609428754556 4.339158212148129 C27.776739741659238 4.756174490172664, 27.667385195772916 5.173190768197199, 27.569023134214884 5.548287939305125 M27.88609428754556 4.339158212148129 C27.771530541415597 4.776039428383334, 27.656966795285634 5.212920644618539, 27.569023134214884 5.548287939305125 M27.569023134214884 5.548287939305125 C27.47319291054599 5.836913304523188, 27.3773626868771 6.1255386697412515, 27.17513422997033 6.734618561215495 M27.569023134214884 5.548287939305125 C27.426658065665276 5.977068842983259, 27.284292997115667 6.405849746661392, 27.17513422997033 6.734618561215495 M27.17513422997033 6.734618561215495 C26.99281066430597 7.184961293392798, 26.810487098641616 7.635304025570102, 26.706046148808344 7.893275190886679 M27.17513422997033 6.734618561215495 C26.997032093775307 7.174534280987759, 26.81892995758028 7.614450000760023, 26.706046148808344 7.893275190886679 M26.706046148808344 7.893275190886679 C26.59151721305086 8.131096976513756, 26.476988277293373 8.368918762140833, 26.163686474273504 9.019496659696284 M26.706046148808344 7.893275190886679 C26.52813015574501 8.262721557275109, 26.350214162681674 8.632167923663538, 26.163686474273504 9.019496659696284 M26.163686474273504 9.019496659696284 C26.000388623533475 9.30944852938566, 25.83709077279345 9.599400399075037, 25.55028387860425 10.108655082055236 M26.163686474273504 9.019496659696284 C25.94290433027517 9.411517712981677, 25.72212218627683 9.803538766267069, 25.55028387860425 10.108655082055236 M25.55028387860425 10.108655082055236 C25.343279069822085 10.426670056918935, 25.13627426103992 10.744685031782634, 24.86835896464064 11.156274872382301 M25.55028387860425 10.108655082055236 C25.389274822697892 10.35600822891266, 25.228265766791534 10.603361375770085, 24.86835896464064 11.156274872382301 M24.86835896464064 11.156274872382301 C24.622494279160993 11.4857111521914, 24.376629593681344 11.815147432000497, 24.120713908126582 12.158051136245302 M24.86835896464064 11.156274872382301 C24.666148747836537 11.42721814117008, 24.463938531032433 11.698161409957859, 24.120713908126582 12.158051136245302 M24.120713908126582 12.158051136245302 C23.81956197862861 12.511801328663854, 23.518410049130633 12.865551521082404, 23.31042094296866 13.10986736009567 M24.120713908126582 12.158051136245302 C23.873521949199425 12.448416876822066, 23.626329990272264 12.738782617398831, 23.31042094296866 13.10986736009567 M23.31042094296866 13.10986736009567 C22.96534165950867 13.466190051804176, 22.620262376048682 13.82251274351268, 22.44080973676799 14.007812326905684 M23.31042094296866 13.10986736009567 C23.076766957586436 13.351134283351778, 22.843112972204214 13.592401206607883, 22.44080973676799 14.007812326905684 M22.44080973676799 14.007812326905684 C22.082592402669405 14.333135831822732, 21.724375068570822 14.658459336739782, 21.515453708501887 14.848196188198111 M22.44080973676799 14.007812326905684 C22.106213725654104 14.311683571273987, 21.77161771454022 14.615554815642287, 21.515453708501887 14.848196188198111 M21.515453708501887 14.848196188198111 C21.13433243526673 15.152130261540128, 20.753211162031576 15.456064334882143, 20.538155344578715 15.627565626425152 M21.515453708501887 14.848196188198111 C21.249597279423316 15.060209615651573, 20.98374085034475 15.272223043105035, 20.538155344578715 15.627565626425152 M20.538155344578715 15.627565626425152 C20.203677584930688 15.860882832246768, 19.86919982528266 16.094200038068383, 19.512930573605708 16.34271804539089 M20.538155344578715 15.627565626425152 C20.23570624364092 15.838541026428798, 19.933257142703123 16.049516426432444, 19.512930573605708 16.34271804539089 M19.512930573605708 16.34271804539089 C19.08782366100913 16.60042035401245, 18.662716748412553 16.85812266263401, 18.443992264076787 16.990714730406093 M19.512930573605708 16.34271804539089 C19.16911442474805 16.551141415316362, 18.82529827589039 16.759564785241835, 18.443992264076787 16.990714730406093 M18.443992264076787 16.990714730406093 C18.092693515470675 17.173987062536312, 17.741394766864563 17.357259394666535, 17.335732912792388 17.56889292409717 M18.443992264076787 16.990714730406093 C18.143293594833253 17.147589033543756, 17.842594925589722 17.304463336681415, 17.335732912792388 17.56889292409717 M17.335732912792388 17.56889292409717 C16.885542402839047 17.76817890842652, 16.435351892885702 17.96746489275587, 16.192706595147804 18.07487676824742 M17.335732912792388 17.56889292409717 C16.907322192839104 17.75853764146801, 16.47891147288582 17.94818235883885, 16.192706595147804 18.07487676824742 M16.192706595147804 18.07487676824742 C15.920735850923533 18.174964516191952, 15.648765106699262 18.275052264136484, 15.019610251460616 18.506587066708033 M16.192706595147804 18.07487676824742 C15.838037319739826 18.2053983401244, 15.483368044331847 18.335919912001376, 15.019610251460616 18.506587066708033 M15.019610251460616 18.506587066708033 C14.77464222024303 18.57929229250998, 14.529674189025442 18.651997518311923, 13.821264386235413 18.86224982926107 M15.019610251460616 18.506587066708033 C14.65883722165499 18.613662608218068, 14.298064191849361 18.7207381497281, 13.821264386235413 18.86224982926107 M13.821264386235413 18.86224982926107 C13.45419791486478 18.946030356018834, 13.087131443494147 19.0298108827766, 12.602593259676766 19.140403561325773 M13.821264386235413 18.86224982926107 C13.40106178667608 18.958158330532264, 12.980859187116748 19.05406683180346, 12.602593259676766 19.140403561325773 M12.602593259676766 19.140403561325773 C12.280365003554646 19.19249892685815, 11.958136747432524 19.244594292390527, 11.368604652847878 19.3399052695533 M12.602593259676766 19.140403561325773 C12.154249165861891 19.212888357453387, 11.705905072047017 19.285373153581, 11.368604652847878 19.3399052695533 M11.368604652847878 19.3399052695533 C11.05201510011058 19.37044628295122, 10.735425547373284 19.400987296349147, 10.1243692896239 19.45993515863156 M11.368604652847878 19.3399052695533 C11.075509918610033 19.368179766067232, 10.782415184372187 19.39645426258117, 10.1243692896239 19.45993515863156 M10.1243692896239 19.45993515863156 C9.627720567952768 19.47586171646746, 9.131071846281634 19.49178827430336, 8.875000000000004 19.5 M10.1243692896239 19.45993515863156 C9.778042849941839 19.47104117346864, 9.431716410259778 19.482147188305724, 8.875000000000004 19.5 M8.875000000000004 19.5 C8.875000000000002 19.5, 8.875000000000002 19.5, 8.875 19.5 M8.875000000000004 19.5 C8.875000000000002 19.5, 8.875 19.5, 8.875 19.5 M8.875 19.5 C4.208459681338196 19.5, -0.45808063732360793 19.5, -8.874999999999996 19.5 M8.875 19.5 C2.3093196929034487 19.5, -4.2563606141931025 19.5, -8.874999999999996 19.5 M-8.874999999999996 19.5 C-9.257156590342833 19.487744981970383, -9.639313180685669 19.475489963940767, -10.124369289623893 19.45993515863156 M-8.874999999999996 19.5 C-9.215885687395884 19.489068459498952, -9.556771374791772 19.478136918997905, -10.124369289623893 19.45993515863156 M-10.124369289623893 19.45993515863156 C-10.613199053614846 19.412778339203157, -11.102028817605797 19.365621519774752, -11.368604652847871 19.3399052695533 M-10.124369289623893 19.45993515863156 C-10.551729072049373 19.41870827439631, -10.979088854474853 19.37748139016106, -11.368604652847871 19.3399052695533 M-11.368604652847871 19.3399052695533 C-11.752076059989387 19.277908586311835, -12.135547467130902 19.21591190307037, -12.602593259676759 19.140403561325773 M-11.368604652847871 19.3399052695533 C-11.68433154935656 19.288860993424425, -12.000058445865248 19.23781671729555, -12.602593259676759 19.140403561325773 M-12.602593259676759 19.140403561325773 C-13.068549583520799 19.03405207105755, -13.53450590736484 18.927700580789324, -13.821264386235388 18.862249829261074 M-12.602593259676759 19.140403561325773 C-12.878232881891476 19.0774906162719, -13.153872504106193 19.01457767121802, -13.821264386235388 18.862249829261074 M-13.821264386235388 18.862249829261074 C-14.26855934282077 18.729495034045673, -14.715854299406155 18.59674023883027, -15.019610251460593 18.506587066708043 M-13.821264386235388 18.862249829261074 C-14.114573327586006 18.775197275078263, -14.407882268936627 18.68814472089545, -15.019610251460593 18.506587066708043 M-15.019610251460593 18.506587066708043 C-15.313065463222149 18.39859283610955, -15.606520674983704 18.290598605511057, -16.192706595147797 18.074876768247425 M-15.019610251460593 18.506587066708043 C-15.340110247949681 18.38864010533057, -15.660610244438768 18.270693143953093, -16.192706595147797 18.074876768247425 M-16.192706595147797 18.074876768247425 C-16.492836571108345 17.9420181309291, -16.792966547068893 17.809159493610778, -17.33573291279238 17.568892924097174 M-16.192706595147797 18.074876768247425 C-16.627297089067582 17.882496448258095, -17.061887582987367 17.690116128268766, -17.33573291279238 17.568892924097174 M-17.33573291279238 17.568892924097174 C-17.558629239096287 17.452608053436336, -17.78152556540019 17.3363231827755, -18.44399226407678 16.990714730406097 M-17.33573291279238 17.568892924097174 C-17.702534070028772 17.377532995314304, -18.069335227265164 17.18617306653143, -18.44399226407678 16.990714730406097 M-18.44399226407678 16.990714730406097 C-18.821645841853307 16.7617789122192, -19.19929941962983 16.532843094032305, -19.512930573605686 16.3427180453909 M-18.44399226407678 16.990714730406097 C-18.671710932973866 16.852670335097244, -18.899429601870953 16.71462593978839, -19.512930573605686 16.3427180453909 M-19.512930573605686 16.3427180453909 C-19.863003352257966 16.09852242940941, -20.213076130910245 15.854326813427924, -20.538155344578712 15.627565626425156 M-19.512930573605686 16.3427180453909 C-19.775579793568934 16.159505319446023, -20.038229013532177 15.976292593501144, -20.538155344578712 15.627565626425156 M-20.538155344578712 15.627565626425156 C-20.81229525480683 15.408946343187619, -21.086435165034953 15.190327059950082, -21.51545370850187 14.848196188198125 M-20.538155344578712 15.627565626425156 C-20.813005042819476 15.408380306135788, -21.08785474106024 15.189194985846418, -21.51545370850187 14.848196188198125 M-21.51545370850187 14.848196188198125 C-21.85456065631984 14.540228230468017, -22.19366760413781 14.232260272737909, -22.440809736767974 14.007812326905697 M-21.51545370850187 14.848196188198125 C-21.83384635845687 14.559040407716877, -22.152239008411875 14.269884627235628, -22.440809736767974 14.007812326905697 M-22.440809736767974 14.007812326905697 C-22.699748675825496 13.74043661304654, -22.958687614883022 13.473060899187383, -23.310420942968655 13.109867360095677 M-22.440809736767974 14.007812326905697 C-22.69787176126724 13.742374681425492, -22.954933785766507 13.476937035945287, -23.310420942968655 13.109867360095677 M-23.310420942968655 13.109867360095677 C-23.587929917569923 12.78388952782104, -23.86543889217119 12.457911695546404, -24.12071390812658 12.158051136245307 M-23.310420942968655 13.109867360095677 C-23.602466986403126 12.76681345958691, -23.8945130298376 12.42375955907814, -24.12071390812658 12.158051136245307 M-24.12071390812658 12.158051136245307 C-24.389214681815538 11.798284560425795, -24.657715455504494 11.438517984606282, -24.868358964640635 11.156274872382316 M-24.12071390812658 12.158051136245307 C-24.39146761547263 11.795265834571769, -24.66222132281868 11.43248053289823, -24.868358964640635 11.156274872382316 M-24.868358964640635 11.156274872382316 C-25.100427680541546 10.799755005582787, -25.33249639644246 10.44323513878326, -25.550283878604244 10.108655082055249 M-24.868358964640635 11.156274872382316 C-25.09079624681314 10.814551474191708, -25.313233528985645 10.472828076001099, -25.550283878604244 10.108655082055249 M-25.550283878604244 10.108655082055249 C-25.696231010116527 9.849511171305569, -25.842178141628814 9.59036726055589, -26.1636864742735 9.019496659696289 M-25.550283878604244 10.108655082055249 C-25.756631385871785 9.742264187950846, -25.96297889313933 9.375873293846443, -26.1636864742735 9.019496659696289 M-26.1636864742735 9.019496659696289 C-26.299184113352037 8.738132912964671, -26.434681752430574 8.456769166233055, -26.70604614880834 7.893275190886686 M-26.1636864742735 9.019496659696289 C-26.37957101793156 8.571207785601073, -26.59545556158962 8.122918911505858, -26.70604614880834 7.893275190886686 M-26.70604614880834 7.893275190886686 C-26.823962875284984 7.602018596724561, -26.941879601761627 7.310762002562434, -27.175134229970325 6.73461856121551 M-26.70604614880834 7.893275190886686 C-26.8593459210929 7.514621789494362, -27.012645693377454 7.135968388102038, -27.175134229970325 6.73461856121551 M-27.175134229970325 6.73461856121551 C-27.277814674314442 6.425361422758113, -27.380495118658562 6.116104284300715, -27.56902313421488 5.5482879393051325 M-27.175134229970325 6.73461856121551 C-27.271433070867356 6.444581795570311, -27.367731911764384 6.154545029925113, -27.56902313421488 5.5482879393051325 M-27.56902313421488 5.5482879393051325 C-27.68159300252654 5.119010243343233, -27.794162870838196 4.689732547381334, -27.886094287545557 4.339158212148136 M-27.56902313421488 5.5482879393051325 C-27.63500204787469 5.2966817460782165, -27.700980961534498 5.0450755528513005, -27.886094287545557 4.339158212148136 M-27.886094287545557 4.339158212148136 C-27.977738539701143 3.8685843463487637, -28.06938279185673 3.3980104805493916, -28.125044776581777 3.112197953150904 M-27.886094287545557 4.339158212148136 C-27.96164101264338 3.9512417455768256, -28.037187737741203 3.5633252790055154, -28.125044776581777 3.112197953150904 M-28.125044776581777 3.112197953150904 C-28.167442280672518 2.7833712837572784, -28.209839784763258 2.4545446143636522, -28.284892702509364 1.872449005199809 M-28.125044776581777 3.112197953150904 C-28.162538038563085 2.8214076171058866, -28.200031300544396 2.530617281060869, -28.284892702509364 1.872449005199809 M-28.284892702509364 1.872449005199809 C-28.309605689599188 1.4875242833116717, -28.334318676689012 1.1025995614235344, -28.364981215913414 0.6250057626472781 M-28.284892702509364 1.872449005199809 C-28.30961698693878 1.4873483181284246, -28.334341271368203 1.1022476310570402, -28.364981215913414 0.6250057626472781 M-28.364981215913414 0.6250057626472781 C-28.364981215913414 0.3213873020538408, -28.364981215913414 0.017768841460403473, -28.364981215913414 -0.6250057626472687 M-28.364981215913414 0.6250057626472781 C-28.364981215913414 0.13052909497101634, -28.364981215913414 -0.36394757270524547, -28.364981215913414 -0.6250057626472687 M-28.364981215913414 -0.6250057626472687 C-28.333019702080183 -1.122832139469466, -28.30105818824695 -1.6206585162916634, -28.284892702509367 -1.8724490051997822 M-28.364981215913414 -0.6250057626472687 C-28.339942694101236 -1.0150009506029805, -28.314904172289058 -1.404996138558692, -28.284892702509367 -1.8724490051997822 M-28.284892702509367 -1.8724490051997822 C-28.2465820511529 -2.1695788518267394, -28.208271399796434 -2.4667086984536963, -28.125044776581777 -3.112197953150895 M-28.284892702509367 -1.8724490051997822 C-28.244587048801122 -2.1850516961093502, -28.204281395092877 -2.497654387018918, -28.125044776581777 -3.112197953150895 M-28.125044776581777 -3.112197953150895 C-28.039381618965475 -3.552060162595828, -27.953718461349176 -3.9919223720407606, -27.88609428754556 -4.339158212148126 M-28.125044776581777 -3.112197953150895 C-28.07127719189214 -3.388283136749129, -28.017509607202506 -3.6643683203473625, -27.88609428754556 -4.339158212148126 M-27.88609428754556 -4.339158212148126 C-27.77287620776673 -4.7709078193709855, -27.659658127987896 -5.202657426593845, -27.569023134214884 -5.548287939305123 M-27.88609428754556 -4.339158212148126 C-27.802117877091643 -4.659396660815437, -27.71814146663772 -4.979635109482748, -27.569023134214884 -5.548287939305123 M-27.569023134214884 -5.548287939305123 C-27.45769886831877 -5.883578891071205, -27.34637460242265 -6.218869842837288, -27.175134229970332 -6.734618561215485 M-27.569023134214884 -5.548287939305123 C-27.445309822821407 -5.920892722182913, -27.321596511427934 -6.293497505060703, -27.175134229970332 -6.734618561215485 M-27.175134229970332 -6.734618561215485 C-27.033236554695886 -7.085108562548286, -26.89133887942144 -7.435598563881088, -26.706046148808344 -7.893275190886676 M-27.175134229970332 -6.734618561215485 C-26.992639874244933 -7.18538314814556, -26.810145518519537 -7.636147735075634, -26.706046148808344 -7.893275190886676 M-26.706046148808344 -7.893275190886676 C-26.511403985139903 -8.297453808419327, -26.316761821471463 -8.701632425951978, -26.163686474273504 -9.019496659696282 M-26.706046148808344 -7.893275190886676 C-26.547378701946233 -8.222751539235357, -26.38871125508412 -8.552227887584037, -26.163686474273504 -9.019496659696282 M-26.163686474273504 -9.019496659696282 C-26.0218128063965 -9.271407723278598, -25.8799391385195 -9.523318786860912, -25.550283878604247 -10.108655082055243 M-26.163686474273504 -9.019496659696282 C-26.027553018872048 -9.26121539476872, -25.891419563470592 -9.50293412984116, -25.550283878604247 -10.108655082055243 M-25.550283878604247 -10.108655082055243 C-25.366385432072722 -10.391172479574927, -25.182486985541193 -10.673689877094608, -24.86835896464064 -11.156274872382308 M-25.550283878604247 -10.108655082055243 C-25.361037796182682 -10.399387884343328, -25.171791713761113 -10.690120686631412, -24.86835896464064 -11.156274872382308 M-24.86835896464064 -11.156274872382308 C-24.59072494525331 -11.528279165381841, -24.31309092586598 -11.900283458381374, -24.120713908126586 -12.158051136245302 M-24.86835896464064 -11.156274872382308 C-24.695231354699807 -11.388250097453295, -24.522103744758972 -11.62022532252428, -24.120713908126586 -12.158051136245302 M-24.120713908126586 -12.158051136245302 C-23.90988157398763 -12.405706792624585, -23.699049239848673 -12.653362449003867, -23.310420942968662 -13.10986736009567 M-24.120713908126586 -12.158051136245302 C-23.914407603456716 -12.400390260871824, -23.708101298786843 -12.642729385498345, -23.310420942968662 -13.10986736009567 M-23.310420942968662 -13.10986736009567 C-23.00328736205808 -13.427007998521793, -22.696153781147498 -13.744148636947918, -22.440809736767996 -14.007812326905677 M-23.310420942968662 -13.10986736009567 C-23.011469197664727 -13.418559581516734, -22.712517452360796 -13.727251802937797, -22.440809736767996 -14.007812326905677 M-22.440809736767996 -14.007812326905677 C-22.12062162085735 -14.298598702062414, -21.800433504946707 -14.58938507721915, -21.515453708501887 -14.848196188198107 M-22.440809736767996 -14.007812326905677 C-22.114670777179644 -14.304003100839811, -21.788531817591295 -14.600193874773943, -21.515453708501887 -14.848196188198107 M-21.515453708501887 -14.848196188198107 C-21.209236211393996 -15.092396493351826, -20.903018714286105 -15.336596798505544, -20.53815534457872 -15.627565626425149 M-21.515453708501887 -14.848196188198107 C-21.22958623432135 -15.076167891604115, -20.94371876014081 -15.304139595010124, -20.53815534457872 -15.627565626425149 M-20.53815534457872 -15.627565626425149 C-20.325707850076927 -15.775759801885785, -20.11326035557514 -15.923953977346423, -19.51293057360571 -16.342718045390885 M-20.53815534457872 -15.627565626425149 C-20.268389637569253 -15.815742505665712, -19.998623930559788 -16.003919384906276, -19.51293057360571 -16.342718045390885 M-19.51293057360571 -16.342718045390885 C-19.262347184646078 -16.494623168369664, -19.01176379568645 -16.64652829134844, -18.44399226407679 -16.99071473040609 M-19.51293057360571 -16.342718045390885 C-19.23946022894457 -16.5084973754146, -18.965989884283427 -16.674276705438313, -18.44399226407679 -16.99071473040609 M-18.44399226407679 -16.99071473040609 C-18.1450108250515 -17.146693155638832, -17.84602938602621 -17.302671580871575, -17.335732912792388 -17.56889292409717 M-18.44399226407679 -16.99071473040609 C-18.021747643953102 -17.210999478264032, -17.599503023829413 -17.431284226121974, -17.335732912792388 -17.56889292409717 M-17.335732912792388 -17.56889292409717 C-16.91620581326488 -17.754605126228757, -16.496678713737374 -17.94031732836034, -16.192706595147804 -18.07487676824742 M-17.335732912792388 -17.56889292409717 C-16.962214925117525 -17.734238257223403, -16.588696937442663 -17.899583590349632, -16.192706595147804 -18.07487676824742 M-16.192706595147804 -18.07487676824742 C-15.879442903188336 -18.19016070266633, -15.566179211228867 -18.305444637085238, -15.019610251460618 -18.506587066708033 M-16.192706595147804 -18.07487676824742 C-15.891328226640752 -18.185786793769115, -15.5899498581337 -18.29669681929081, -15.019610251460618 -18.506587066708033 M-15.019610251460618 -18.506587066708033 C-14.769930670609424 -18.5806906557098, -14.520251089758233 -18.65479424471157, -13.821264386235413 -18.862249829261067 M-15.019610251460618 -18.506587066708033 C-14.634396143456986 -18.620916591933394, -14.249182035453353 -18.73524611715876, -13.821264386235413 -18.862249829261067 M-13.821264386235413 -18.862249829261067 C-13.366806871046213 -18.965976791490565, -12.912349355857012 -19.069703753720063, -12.602593259676768 -19.140403561325773 M-13.821264386235413 -18.862249829261067 C-13.556509534360021 -18.922678396514755, -13.291754682484632 -18.983106963768446, -12.602593259676768 -19.140403561325773 M-12.602593259676768 -19.140403561325773 C-12.192545284277955 -19.206696938018712, -11.78249730887914 -19.27299031471165, -11.36860465284788 -19.3399052695533 M-12.602593259676768 -19.140403561325773 C-12.168838053901217 -19.210529739173705, -11.735082848125668 -19.280655917021637, -11.36860465284788 -19.3399052695533 M-11.36860465284788 -19.3399052695533 C-10.968008494180529 -19.378550299192568, -10.567412335513175 -19.41719532883184, -10.124369289623903 -19.45993515863156 M-11.36860465284788 -19.3399052695533 C-10.885909551392187 -19.386470285464934, -10.403214449936494 -19.433035301376574, -10.124369289623903 -19.45993515863156 M-10.124369289623903 -19.45993515863156 C-9.81046909619828 -19.470001326865056, -9.496568902772658 -19.480067495098556, -8.875000000000005 -19.5 M-10.124369289623903 -19.45993515863156 C-9.844457411217476 -19.468911387756634, -9.564545532811048 -19.47788761688171, -8.875000000000005 -19.5 M-8.875000000000005 -19.5 C-8.875000000000004 -19.5, -8.875000000000002 -19.5, -8.875 -19.5 M-8.875000000000005 -19.5 C-8.875000000000004 -19.5, -8.875000000000002 -19.5, -8.875 -19.5" stroke="#9370DB" stroke-width="1.3" fill="none" stroke-dasharray="0 0" style=""/></g><g class="label" style="" transform="translate(-16, -12)"><rect/><foreignObject width="32" height="24"><div xmlns="http://www.w3.org/1999/xhtml" style="display: table-cell; white-space: nowrap; line-height: 1.5; max-width: 200px; text-align: center;"><span class="nodeLabel"><p>开始</p></span></div></foreignObject></g></g><g class="node default" id="my-svg-flowchart-B-1" data-look="classic" transform="translate(149.5, 105.5)"><polygon points="-19.5,0 111,0 130.5,-39 0,-39" class="label-container" transform="translate(-55.5,19.5)"/><g class="label" style="" transform="translate(-48, -12)"><rect/><foreignObject width="96" height="24"><div xmlns="http://www.w3.org/1999/xhtml" style="display: table-cell; white-space: nowrap; line-height: 1.5; max-width: 200px; text-align: center;"><span class="nodeLabel"><p>用户上传文件</p></span></div></foreignObject></g></g><g class="node default" id="my-svg-flowchart-C-2" data-look="classic" transform="translate(124.5, 259)"><polygon points="99,0 198,-99 99,-198 0,-99" class="label-container" transform="translate(-98.5, 99)"/><g class="label" style="" transform="translate(-72, -12)"><rect/><foreignObject width="144" height="24"><div xmlns="http://www.w3.org/1999/xhtml" style="display: table-cell; white-space: nowrap; line-height: 1.5; max-width: 200px; text-align: center;"><span class="nodeLabel"><p>文件格式是否支持？</p></span></div></foreignObject></g></g><g class="node default" id="my-svg-flowchart-D-3" data-look="classic" transform="translate(91.5, 471.5)"><polygon points="0,0 143,0 143,-39 0,-39 0,0 -8,0 151,0 151,-39 -8,-39 -8,0" class="label-container" transform="translate(-71.5,19.5)"/><g class="label" style="" transform="translate(-64, -12)"><rect/><foreignObject width="128" height="24"><div xmlns="http://www.w3.org/1999/xhtml" style="display: table-cell; white-space: nowrap; line-height: 1.5; max-width: 200px; text-align: center;"><span class="nodeLabel"><p>调用文件解析模块</p></span></div></foreignObject></g></g><g class="node default" id="my-svg-flowchart-E-4" data-look="classic" transform="translate(281, 471.5)"><polygon points="-19.5,0 111,0 130.5,-39 0,-39" class="label-container" transform="translate(-55.5,19.5)"/><g class="label" style="" transform="translate(-48, -12)"><rect/><foreignObject width="96" height="24"><div xmlns="http://www.w3.org/1999/xhtml" style="display: table-cell; white-space: nowrap; line-height: 1.5; max-width: 200px; text-align: center;"><span class="nodeLabel"><p>提示重新上传</p></span></div></foreignObject></g></g></g><g class="edges edgePaths"><path d="M149.5,51L149.5,82" id="my-svg-L_A_B_0_0" class="edge-thickness-normal edge-pattern-solid edge-thickness-normal edge-pattern-solid flowchart-link" style=";" data-edge="true" data-et="edge" data-id="L_A_B_0_0" data-points="W3sieCI6MTQ5LjUsInkiOjUxfSx7IngiOjE0OS41LCJ5Ijo4Nn1d" data-look="classic" marker-end="url(#my-svg_flowchart-elk-pointEnd)"/><path d="M124.5,125L124.5,156" id="my-svg-L_B_C_0_0" class="edge-thickness-normal edge-pattern-solid edge-thickness-normal edge-pattern-solid flowchart-link" style=";" data-edge="true" data-et="edge" data-id="L_B_C_0_0" data-points="W3sieCI6MTI0LjUsInkiOjEyNX0seyJ4IjoxMjQuNSwieSI6MTYwfV0=" data-look="classic" marker-end="url(#my-svg_flowchart-elk-pointEnd)"/><path d="M100.25,333.75L98.792,337.792C97.333,341.833,94.417,349.917,92.958,368.958C91.5,388,91.5,418,91.5,433L91.5,448" id="my-svg-L_C_D_0_0" class="edge-thickness-normal edge-pattern-solid edge-thickness-normal edge-pattern-solid flowchart-link" style=";" data-edge="true" data-et="edge" data-id="L_C_D_0_0" data-points="W3sieCI6MTAwLjI1LCJ5IjozMzMuNzV9LHsieCI6OTEuNSwieSI6MzU4fSx7IngiOjkxLjUsInkiOjQ1Mn1d" data-look="classic" marker-end="url(#my-svg_flowchart-elk-pointEnd)"/><path d="M149.75,333.75L151.042,337.792C152.333,341.833,154.917,349.917,156.208,356.042C157.5,362.167,157.5,366.333,157.862,368.888C158.224,371.443,158.948,372.386,159.781,373.219C160.614,374.052,161.557,374.776,176.779,375.138C192,375.5,221.5,375.5,236.721,375.862C251.943,376.224,252.886,376.948,253.719,377.781C254.552,378.614,255.276,379.557,255.638,391.279C256,403,256,425.5,256,436.75L256,448" id="my-svg-L_C_E_0_0" class="edge-thickness-normal edge-pattern-solid edge-thickness-normal edge-pattern-solid flowchart-link" style=";" data-edge="true" data-et="edge" data-id="L_C_E_0_0" data-points="W3sieCI6MTQ5Ljc1LCJ5IjozMzMuNzV9LHsieCI6MTU3LjUsInkiOjM1OH0seyJ4IjoxNTcuNSwieSI6Mzc1LjV9LHsieCI6MjU2LCJ5IjozNzUuNX0seyJ4IjoyNTYsInkiOjQ1Mn1d" data-look="classic" marker-end="url(#my-svg_flowchart-elk-pointEnd)"/><path d="M306,452L306,449.917C306,447.833,306,443.667,306,440.75C306,437.833,306,436.167,305.167,435.333C304.333,434.5,302.667,434.5,302.083,434.5C301.5,434.5,302,434.5,301.417,434.5C300.833,434.5,299.167,434.5,298.333,433.667C297.5,432.833,297.5,431.167,297.5,426.25C297.5,421.333,297.5,413.167,297.5,366.167C297.5,319.167,297.5,233.333,297.138,189.945C296.776,146.557,296.052,145.614,295.219,144.781C294.386,143.948,293.443,143.224,274.138,142.862C254.833,142.5,217.167,142.5,197.862,142.138C178.557,141.776,177.614,141.052,176.781,140.219C175.948,139.386,175.224,138.443,174.862,136.555C174.5,134.667,174.5,131.833,174.5,130.417L174.5,129" id="my-svg-L_E_B_0_0" class="edge-thickness-normal edge-pattern-dotted edge-thickness-normal edge-pattern-solid flowchart-link" style=";" data-edge="true" data-et="edge" data-id="L_E_B_0_0" data-points="W3sieCI6MzA2LCJ5Ijo0NTJ9LHsieCI6MzA2LCJ5Ijo0MzQuNX0seyJ4IjoyOTcuNSwieSI6NDM0LjV9LHsieCI6Mjk3LjUsInkiOjQwNX0seyJ4IjoyOTcuNSwieSI6MTQyLjV9LHsieCI6MTc0LjUsInkiOjE0Mi41fSx7IngiOjE3NC41LCJ5IjoxMjV9XQ==" data-look="classic" marker-end="url(#my-svg_flowchart-elk-pointEnd)"/></g><g class="edgeLabels"><g class="edgeLabel"><g class="label" data-id="L_A_B_0_0" transform="translate(0, 0)"><foreignObject width="0" height="0"><div xmlns="http://www.w3.org/1999/xhtml" class="labelBkg" style="display: table-cell; white-space: nowrap; line-height: 1.5; max-width: 200px; text-align: center;"><span class="edgeLabel"></span></div></foreignObject></g></g><g class="edgeLabel"><g class="label" data-id="L_B_C_0_0" transform="translate(0, 0)"><foreignObject width="0" height="0"><div xmlns="http://www.w3.org/1999/xhtml" class="labelBkg" style="display: table-cell; white-space: nowrap; line-height: 1.5; max-width: 200px; text-align: center;"><span class="edgeLabel"></span></div></foreignObject></g></g><g class="edgeLabel" transform="translate(91.5, 405)"><g class="label" data-id="L_C_D_0_0" transform="translate(-16, -12)"><foreignObject width="32" height="24"><div xmlns="http://www.w3.org/1999/xhtml" class="labelBkg" style="display: table-cell; white-space: nowrap; line-height: 1.5; max-width: 200px; text-align: center;"><span class="edgeLabel"><p>支持</p></span></div></foreignObject></g></g><g class="edgeLabel" transform="translate(256, 405)"><g class="label" data-id="L_C_E_0_0" transform="translate(-24, -12)"><foreignObject width="48" height="24"><div xmlns="http://www.w3.org/1999/xhtml" class="labelBkg" style="display: table-cell; white-space: nowrap; line-height: 1.5; max-width: 200px; text-align: center;"><span class="edgeLabel"><p>不支持</p></span></div></foreignObject></g></g><g class="edgeLabel" transform="translate(297.5, 259)"><g class="label" data-id="L_E_B_0_0" transform="translate(-16, -12)"><foreignObject width="32" height="24"><div xmlns="http://www.w3.org/1999/xhtml" class="labelBkg" style="display: table-cell; white-space: nowrap; line-height: 1.5; max-width: 200px; text-align: center;"><span class="edgeLabel"><p>返回</p></span></div></foreignObject></g></g></g></svg>