<svg id="my-svg" width="100%" xmlns="http://www.w3.org/2000/svg" xmlns:xlink="http://www.w3.org/1999/xlink" class="flowchart" style="max-width: 392px; background-color: white;" viewBox="4 4 392 479" role="graphics-document document" aria-roledescription="flowchart-elk"><style>#my-svg{font-family:"trebuchet ms",verdana,arial,sans-serif;font-size:16px;fill:#333;}@keyframes edge-animation-frame{from{stroke-dashoffset:0;}}@keyframes dash{to{stroke-dashoffset:0;}}#my-svg .edge-animation-slow{stroke-dasharray:9,5!important;stroke-dashoffset:900;animation:dash 50s linear infinite;stroke-linecap:round;}#my-svg .edge-animation-fast{stroke-dasharray:9,5!important;stroke-dashoffset:900;animation:dash 20s linear infinite;stroke-linecap:round;}#my-svg .error-icon{fill:#552222;}#my-svg .error-text{fill:#552222;stroke:#552222;}#my-svg .edge-thickness-normal{stroke-width:1px;}#my-svg .edge-thickness-thick{stroke-width:3.5px;}#my-svg .edge-pattern-solid{stroke-dasharray:0;}#my-svg .edge-thickness-invisible{stroke-width:0;fill:none;}#my-svg .edge-pattern-dashed{stroke-dasharray:3;}#my-svg .edge-pattern-dotted{stroke-dasharray:2;}#my-svg .marker{fill:#333333;stroke:#333333;}#my-svg .marker.cross{stroke:#333333;}#my-svg svg{font-family:"trebuchet ms",verdana,arial,sans-serif;font-size:16px;}#my-svg p{margin:0;}#my-svg .label{font-family:"trebuchet ms",verdana,arial,sans-serif;color:#333;}#my-svg .cluster-label text{fill:#333;}#my-svg .cluster-label span{color:#333;}#my-svg .cluster-label span p{background-color:transparent;}#my-svg .label text,#my-svg span{fill:#333;color:#333;}#my-svg .node rect,#my-svg .node circle,#my-svg .node ellipse,#my-svg .node polygon,#my-svg .node path{fill:#ECECFF;stroke:#9370DB;stroke-width:1px;}#my-svg .rough-node .label text,#my-svg .node .label text,#my-svg .image-shape .label,#my-svg .icon-shape .label{text-anchor:middle;}#my-svg .node .katex path{fill:#000;stroke:#000;stroke-width:1px;}#my-svg .rough-node .label,#my-svg .node .label,#my-svg .image-shape .label,#my-svg .icon-shape .label{text-align:center;}#my-svg .node.clickable{cursor:pointer;}#my-svg .root .anchor path{fill:#333333!important;stroke-width:0;stroke:#333333;}#my-svg .arrowheadPath{fill:#333333;}#my-svg .edgePath .path{stroke:#333333;stroke-width:1px;}#my-svg .flowchart-link{stroke:#333333;fill:none;}#my-svg .edgeLabel{background-color:rgba(232,232,232, 0.8);text-align:center;}#my-svg .edgeLabel p{background-color:rgba(232,232,232, 0.8);}#my-svg .edgeLabel rect{opacity:0.5;background-color:rgba(232,232,232, 0.8);fill:rgba(232,232,232, 0.8);}#my-svg .labelBkg{background-color:rgba(232, 232, 232, 0.5);}#my-svg .cluster rect{fill:#ffffde;stroke:#aaaa33;stroke-width:1px;}#my-svg .cluster text{fill:#333;}#my-svg .cluster span{color:#333;}#my-svg div.mermaidTooltip{position:absolute;text-align:center;max-width:200px;padding:2px;font-family:"trebuchet ms",verdana,arial,sans-serif;font-size:12px;background:hsl(80, 100%, 96.2745098039%);border:1px solid #aaaa33;border-radius:2px;pointer-events:none;z-index:100;}#my-svg .flowchartTitleText{text-anchor:middle;font-size:18px;fill:#333;}#my-svg rect.text{fill:none;stroke-width:0;}#my-svg .icon-shape,#my-svg .image-shape{background-color:rgba(232,232,232, 0.8);text-align:center;}#my-svg .icon-shape p,#my-svg .image-shape p{background-color:rgba(232,232,232, 0.8);padding:2px;}#my-svg .icon-shape .label rect,#my-svg .image-shape .label rect{opacity:0.5;background-color:rgba(232,232,232, 0.8);fill:rgba(232,232,232, 0.8);}#my-svg .label-icon{display:inline-block;height:1em;overflow:visible;vertical-align:-0.125em;}#my-svg .node .label-icon path{fill:currentColor;stroke:revert;stroke-width:revert;}#my-svg .node .neo-node{stroke:#9370DB;}#my-svg [data-look="neo"].node rect,#my-svg [data-look="neo"].cluster rect,#my-svg [data-look="neo"].node polygon{stroke:#9370DB;filter:drop-shadow(1px 2px 2px rgba(185, 185, 185, 1));}#my-svg [data-look="neo"].node path{stroke:#9370DB;stroke-width:1px;}#my-svg [data-look="neo"].node .outer-path{filter:drop-shadow(1px 2px 2px rgba(185, 185, 185, 1));}#my-svg [data-look="neo"].node .neo-line path{stroke:#9370DB;filter:none;}#my-svg [data-look="neo"].node circle{stroke:#9370DB;filter:drop-shadow(1px 2px 2px rgba(185, 185, 185, 1));}#my-svg [data-look="neo"].node circle .state-start{fill:#000000;}#my-svg [data-look="neo"].icon-shape .icon{fill:#9370DB;filter:drop-shadow(1px 2px 2px rgba(185, 185, 185, 1));}#my-svg [data-look="neo"].icon-shape .icon-neo path{stroke:#9370DB;filter:drop-shadow(1px 2px 2px rgba(185, 185, 185, 1));}#my-svg :root{--mermaid-font-family:"trebuchet ms",verdana,arial,sans-serif;}</style><g><marker id="my-svg_flowchart-elk-pointEnd" class="marker flowchart-elk" viewBox="0 0 10 10" refX="5" refY="5" markerUnits="userSpaceOnUse" markerWidth="8" markerHeight="8" orient="auto"><path d="M 0 0 L 10 5 L 0 10 z" class="arrowMarkerPath" style="stroke-width: 1; stroke-dasharray: 1, 0;"/></marker><marker id="my-svg_flowchart-elk-pointStart" class="marker flowchart-elk" viewBox="0 0 10 10" refX="4.5" refY="5" markerUnits="userSpaceOnUse" markerWidth="8" markerHeight="8" orient="auto"><path d="M 0 5 L 10 10 L 10 0 z" class="arrowMarkerPath" style="stroke-width: 1; stroke-dasharray: 1, 0;"/></marker><marker id="my-svg_flowchart-elk-pointEnd-margin" class="marker flowchart-elk" viewBox="0 0 11.5 14" refX="11.5" refY="7" markerUnits="userSpaceOnUse" markerWidth="10.5" markerHeight="14" orient="auto"><path d="M 0 0 L 11.5 7 L 0 14 z" class="arrowMarkerPath" style="stroke-width: 0; stroke-dasharray: 1, 0;"/></marker><marker id="my-svg_flowchart-elk-pointStart-margin" class="marker flowchart-elk" viewBox="0 0 11.5 14" refX="1" refY="7" markerUnits="userSpaceOnUse" markerWidth="11.5" markerHeight="14" orient="auto"><polygon points="0,7 11.5,14 11.5,0" class="arrowMarkerPath" style="stroke-width: 0; stroke-dasharray: 1, 0;"/></marker><marker id="my-svg_flowchart-elk-circleEnd" class="marker flowchart-elk" viewBox="0 0 10 10" refX="11" refY="5" markerUnits="userSpaceOnUse" markerWidth="11" markerHeight="11" orient="auto"><circle cx="5" cy="5" r="5" class="arrowMarkerPath" style="stroke-width: 1; stroke-dasharray: 1, 0;"/></marker><marker id="my-svg_flowchart-elk-circleStart" class="marker flowchart-elk" viewBox="0 0 10 10" refX="-1" refY="5" markerUnits="userSpaceOnUse" markerWidth="11" markerHeight="11" orient="auto"><circle cx="5" cy="5" r="5" class="arrowMarkerPath" style="stroke-width: 1; stroke-dasharray: 1, 0;"/></marker><marker id="my-svg_flowchart-elk-circleEnd-margin" class="marker flowchart-elk" viewBox="0 0 10 10" refY="5" refX="12.25" markerUnits="userSpaceOnUse" markerWidth="14" markerHeight="14" orient="auto"><circle cx="5" cy="5" r="5" class="arrowMarkerPath" style="stroke-width: 0; stroke-dasharray: 1, 0;"/></marker><marker id="my-svg_flowchart-elk-circleStart-margin" class="marker flowchart-elk" viewBox="0 0 10 10" refX="-2" refY="5" markerUnits="userSpaceOnUse" markerWidth="14" markerHeight="14" orient="auto"><circle cx="5" cy="5" r="5" class="arrowMarkerPath" style="stroke-width: 0; stroke-dasharray: 1, 0;"/></marker><marker id="my-svg_flowchart-elk-crossEnd" class="marker cross flowchart-elk" viewBox="0 0 11 11" refX="12" refY="5.2" markerUnits="userSpaceOnUse" markerWidth="11" markerHeight="11" orient="auto"><path d="M 1,1 l 9,9 M 10,1 l -9,9" class="arrowMarkerPath" style="stroke-width: 2; stroke-dasharray: 1, 0;"/></marker><marker id="my-svg_flowchart-elk-crossStart" class="marker cross flowchart-elk" viewBox="0 0 11 11" refX="-1" refY="5.2" markerUnits="userSpaceOnUse" markerWidth="11" markerHeight="11" orient="auto"><path d="M 1,1 l 9,9 M 10,1 l -9,9" class="arrowMarkerPath" style="stroke-width: 2; stroke-dasharray: 1, 0;"/></marker><marker id="my-svg_flowchart-elk-crossEnd-margin" class="marker cross flowchart-elk" viewBox="0 0 15 15" refX="17.7" refY="7.5" markerUnits="userSpaceOnUse" markerWidth="12" markerHeight="12" orient="auto"><path d="M 1,1 L 14,14 M 1,14 L 14,1" class="arrowMarkerPath" style="stroke-width: 2.5;"/></marker><marker id="my-svg_flowchart-elk-crossStart-margin" class="marker cross flowchart-elk" viewBox="0 0 15 15" refX="-3.5" refY="7.5" markerUnits="userSpaceOnUse" markerWidth="12" markerHeight="12" orient="auto"><path d="M 1,1 L 14,14 M 1,14 L 14,1" class="arrowMarkerPath" style="stroke-width: 2.5; stroke-dasharray: 1, 0;"/></marker></g><defs><filter id="my-svg-drop-shadow" height="130%" width="130%"><feDropShadow dx="4" dy="4" stdDeviation="0" flood-opacity="0.06" flood-color="#000000"/></filter></defs><defs><filter id="my-svg-drop-shadow-small" height="150%" width="150%"><feDropShadow dx="2" dy="2" stdDeviation="0" flood-opacity="0.06" flood-color="#000000"/></filter></defs><g class="subgraphs"/><g class="nodes"><g class="node default" id="my-svg-flowchart-A-0" data-look="classic" transform="translate(97.66666666666666, 31.5)"><g class="basic label-container outer-path"><path d="M-8.875 -19.5 C-2.614644445912619 -19.5, 3.645711108174762 -19.5, 8.875 -19.5 C8.875 -19.5, 8.874999999999998 -19.5, 8.874999999999998 -19.5 C9.322581093850612 -19.48564694548396, 9.770162187701228 -19.47129389096792, 10.1243692896239 -19.45993515863156 C10.427676835988297 -19.43067544441448, 10.730984382352695 -19.4014157301974, 11.368604652847864 -19.3399052695533 C11.676005163085073 -19.29020713898471, 11.983405673322283 -19.24050900841612, 12.602593259676757 -19.140403561325776 C12.88057406989026 -19.076956255388858, 13.158554880103763 -19.01350894945194, 13.82126438623539 -18.862249829261074 C14.220541864043657 -18.74374636969783, 14.619819341851924 -18.625242910134588, 15.019610251460602 -18.50658706670804 C15.322102131175985 -18.395267258768495, 15.624594010891368 -18.28394745082895, 16.192706595147794 -18.074876768247425 C16.518890489041233 -17.930484834322225, 16.845074382934676 -17.786092900397026, 17.33573291279238 -17.568892924097174 C17.706546195998452 -17.37543987176581, 18.077359479204524 -17.18198681943445, 18.443992264076783 -16.990714730406097 C18.842575941001428 -16.749090963116696, 19.24115961792607 -16.507467195827296, 19.512930573605697 -16.342718045390892 C19.893975219876726 -16.076917795309104, 20.275019866147755 -15.811117545227317, 20.538155344578712 -15.627565626425154 C20.833868033997973 -15.391742625858447, 21.12958072341723 -15.15591962529174, 21.51545370850187 -14.848196188198123 C21.865639700381543 -14.530166535786622, 22.215825692261213 -14.212136883375122, 22.440809736767985 -14.007812326905688 C22.73893672617887 -13.699971733657913, 23.037063715589756 -13.392131140410138, 23.310420942968648 -13.10986736009568 C23.50955532016685 -12.875952789571615, 23.708689697365052 -12.64203821904755, 24.120713908126582 -12.158051136245305 C24.29374971536141 -11.926198918436967, 24.46678552259624 -11.694346700628628, 24.868358964640635 -11.156274872382312 C25.030645988013237 -10.90695842431442, 25.19293301138584 -10.657641976246529, 25.550283878604247 -10.108655082055241 C25.683013999794756 -9.872979311499297, 25.81574412098527 -9.63730354094335, 26.1636864742735 -9.019496659696287 C26.367189981632617 -8.596917272387566, 26.570693488991733 -8.174337885078845, 26.70604614880834 -7.893275190886684 C26.80866968240232 -7.639793078818504, 26.911293215996306 -7.386310966750324, 27.175134229970325 -6.734618561215508 C27.322392031654854 -6.291101524886161, 27.46964983333938 -5.847584488556813, 27.56902313421488 -5.548287939305138 C27.640848814542604 -5.274385490768758, 27.712674494870328 -5.000483042232377, 27.88609428754556 -4.339158212148133 C27.952763498780765 -3.996825902998145, 28.01943271001597 -3.6544935938481564, 28.125044776581777 -3.1121979531509023 C28.157413685888002 -2.8611510845359565, 28.189782595194224 -2.610104215921011, 28.284892702509367 -1.872449005199798 C28.30231994856056 -1.6010055809326689, 28.31974719461175 -1.3295621566655396, 28.364981215913414 -0.6250057626472757 C28.364981215913414 -0.3163380680504346, 28.364981215913414 -0.007670373453593449, 28.364981215913414 0.625005762647271 C28.333142903316947 1.1209131807606292, 28.30130459072048 1.6168205988739874, 28.284892702509367 1.8724490051997846 C28.252767016247123 2.1216094839154582, 28.220641329984876 2.3707699626311314, 28.125044776581777 3.1121979531508885 C28.037640152735083 3.561002223629868, 27.950235528888392 4.009806494108847, 27.88609428754556 4.339158212148129 C27.81123103131277 4.624644254104258, 27.736367775079977 4.910130296060387, 27.569023134214884 5.548287939305125 C27.447253114946776 5.915039835922858, 27.32548309567867 6.28179173254059, 27.17513422997033 6.734618561215495 C27.078184864658848 6.974085367923321, 26.981235499347367 7.213552174631146, 26.706046148808344 7.893275190886679 C26.572720411278244 8.170128937581719, 26.439394673748144 8.44698268427676, 26.163686474273504 9.019496659696284 C26.000503490115754 9.309244572137322, 25.837320505958004 9.598992484578359, 25.55028387860425 10.108655082055236 C25.306286899933802 10.483499963655813, 25.062289921263353 10.858344845256388, 24.86835896464064 11.156274872382301 C24.658757484365953 11.437121760862707, 24.449156004091268 11.717968649343112, 24.120713908126582 12.158051136245302 C23.825887610124546 12.504370881970095, 23.53106131212251 12.850690627694888, 23.31042094296866 13.10986736009567 C23.10732411695697 13.319581507512257, 22.904227290945283 13.529295654928845, 22.44080973676799 14.007812326905684 C22.19992873026528 14.226574083649263, 21.959047723762573 14.44533584039284, 21.515453708501887 14.848196188198111 C21.163317722584154 15.129015266235372, 20.811181736666423 15.409834344272634, 20.538155344578715 15.627565626425152 C20.27226695333859 15.813037858031317, 20.006378562098465 15.998510089637483, 19.512930573605708 16.34271804539089 C19.286057392356337 16.48024990111906, 19.059184211106967 16.61778175684723, 18.443992264076787 16.990714730406093 C18.192591632527286 17.121870278855678, 17.941191000977785 17.25302582730526, 17.335732912792388 17.56889292409717 C17.10385094352515 17.671540193357554, 16.871968974257907 17.774187462617938, 16.192706595147804 18.07487676824742 C15.868612292958174 18.19414646734809, 15.544517990768544 18.313416166448764, 15.019610251460616 18.506587066708033 C14.589987675536248 18.634096792107467, 14.16036509961188 18.761606517506902, 13.821264386235413 18.86224982926107 C13.52756923912185 18.929283830049798, 13.233874092008286 18.99631783083852, 12.602593259676766 19.140403561325773 C12.113048832258837 19.21954930787697, 11.623504404840906 19.298695054428165, 11.368604652847878 19.3399052695533 C10.88811569392163 19.386257461548396, 10.407626734995382 19.43260965354349, 10.1243692896239 19.45993515863156 C9.82301837428247 19.469598895942585, 9.52166745894104 19.47926263325361, 8.875000000000004 19.5 C8.875000000000004 19.5, 8.875000000000002 19.5, 8.875 19.5 C2.958369141805318 19.5, -2.958261716389364 19.5, -8.874999999999996 19.5 C-9.307579430456586 19.48612801963004, -9.740158860913176 19.47225603926008, -10.124369289623893 19.45993515863156 C-10.388817330206171 19.434424174201887, -10.653265370788452 19.408913189772214, -11.368604652847871 19.3399052695533 C-11.788408766903204 19.27203459602236, -12.20821288095854 19.20416392249142, -12.602593259676759 19.140403561325773 C-12.8635612377787 19.080839323299212, -13.12452921588064 19.021275085272656, -13.821264386235388 18.862249829261074 C-14.151254923766459 18.76431036987753, -14.481245461297528 18.66637091049399, -15.019610251460593 18.506587066708043 C-15.309596153309936 18.399869574227193, -15.599582055159278 18.293152081746342, -16.192706595147797 18.074876768247425 C-16.54428785565862 17.919242173506824, -16.89586911616944 17.763607578766223, -17.33573291279238 17.568892924097174 C-17.699634927998765 17.37904547585437, -18.06353694320515 17.18919802761156, -18.44399226407678 16.990714730406097 C-18.78735619646341 16.78256549676288, -19.130720128850037 16.574416263119662, -19.512930573605686 16.3427180453909 C-19.885945927214436 16.08251868228784, -20.258961280823186 15.822319319184784, -20.538155344578712 15.627565626425156 C-20.77921235491351 15.4353290754796, -21.020269365248314 15.243092524534047, -21.51545370850187 14.848196188198125 C-21.734228715479922 14.649510515330144, -21.953003722457975 14.450824842462161, -22.440809736767974 14.007812326905697 C-22.694985040789515 13.745355457322901, -22.949160344811055 13.482898587740106, -23.310420942968655 13.109867360095677 C-23.560265162934325 12.816386122785147, -23.810109382899995 12.522904885474617, -24.12071390812658 12.158051136245307 C-24.380438372421413 11.810044015475686, -24.640162836716247 11.462036894706067, -24.868358964640635 11.156274872382316 C-25.07258402385842 10.842530339316781, -25.276809083076202 10.528785806251248, -25.550283878604244 10.108655082055249 C-25.748880946157865 9.75602587848004, -25.947478013711482 9.403396674904831, -26.1636864742735 9.019496659696289 C-26.318489701414798 8.69804444627894, -26.473292928556095 8.37659223286159, -26.70604614880834 7.893275190886686 C-26.86139449535544 7.509561771459395, -27.016742841902538 7.125848352032103, -27.175134229970325 6.73461856121551 C-27.278952331623156 6.42193498020535, -27.382770433275983 6.109251399195191, -27.56902313421488 5.5482879393051325 C-27.673106362368593 5.151373480398588, -27.77718959052231 4.754459021492044, -27.886094287545557 4.339158212148136 C-27.93976228279035 4.063584399300925, -27.99343027803515 3.7880105864537152, -28.125044776581777 3.112197953150904 C-28.181654829298115 2.67314156320233, -28.238264882014448 2.2340851732537557, -28.284892702509364 1.872449005199809 C-28.316768123391146 1.3759635955893952, -28.34864354427293 0.8794781859789811, -28.364981215913414 0.6250057626472781 C-28.364981215913414 0.19421256395805658, -28.364981215913414 -0.23658063473116497, -28.364981215913414 -0.6250057626472687 C-28.342405711539367 -0.9766374658921845, -28.31983020716532 -1.3282691691371002, -28.284892702509367 -1.8724490051997822 C-28.221100693441798 -2.3672072303708256, -28.15730868437423 -2.861965455541869, -28.125044776581777 -3.112197953150895 C-28.037825164905477 -3.5600522252372313, -27.95060555322918 -4.007906497323567, -27.88609428754556 -4.339158212148126 C-27.7961309502886 -4.682227407465922, -27.706167613031642 -5.025296602783717, -27.569023134214884 -5.548287939305123 C-27.46226977828728 -5.869812038521643, -27.355516422359678 -6.191336137738165, -27.175134229970332 -6.734618561215485 C-27.052854610831787 -7.036651584603298, -26.93057499169324 -7.3386846079911106, -26.706046148808344 -7.893275190886676 C-26.52932523252666 -8.260239954767467, -26.35260431624497 -8.627204718648258, -26.163686474273504 -9.019496659696282 C-25.959461369464908 -9.382119013318276, -25.755236264656308 -9.74474136694027, -25.550283878604247 -10.108655082055243 C-25.326933684432937 -10.45178095822721, -25.103583490261627 -10.79490683439918, -24.86835896464064 -11.156274872382308 C-24.68409516517858 -11.403171576884006, -24.499831365716517 -11.650068281385701, -24.120713908126586 -12.158051136245302 C-23.905396164665166 -12.410975609641769, -23.69007842120375 -12.663900083038236, -23.310420942968662 -13.10986736009567 C-23.073232666302697 -13.354783729272949, -22.836044389636736 -13.599700098450228, -22.440809736767996 -14.007812326905677 C-22.18905953212424 -14.236445201817729, -21.937309327480484 -14.465078076729782, -21.515453708501887 -14.848196188198107 C-21.219792378704035 -15.08397823083348, -20.92413104890618 -15.319760273468853, -20.53815534457872 -15.627565626425149 C-20.275022262125898 -15.811115873896687, -20.011889179673073 -15.994666121368224, -19.51293057360571 -16.342718045390885 C-19.1585948466927 -16.557518445353416, -18.804259119779694 -16.772318845315944, -18.44399226407679 -16.99071473040609 C-18.20695367430096 -17.114377610861677, -17.969915084525127 -17.238040491317268, -17.335732912792388 -17.56889292409717 C-16.91161416852474 -17.756637711148915, -16.48749542425709 -17.94438249820066, -16.192706595147804 -18.07487676824742 C-15.84328332750313 -18.20346776077394, -15.493860059858456 -18.332058753300455, -15.019610251460618 -18.506587066708033 C-14.63218552706334 -18.62157269127527, -14.244760802666063 -18.7365583158425, -13.821264386235413 -18.862249829261067 C-13.363662008423308 -18.966694585862097, -12.906059630611205 -19.071139342463127, -12.602593259676768 -19.140403561325773 C-12.232834344321658 -19.200183315237172, -11.863075428966546 -19.259963069148572, -11.36860465284788 -19.3399052695533 C-10.945142955452932 -19.380756110213788, -10.521681258057981 -19.421606950874274, -10.124369289623903 -19.45993515863156 C-9.741580434937758 -19.472210452148037, -9.35879158025161 -19.484485745664518, -8.875000000000005 -19.5 C-8.875000000000004 -19.5, -8.875000000000002 -19.5, -8.875 -19.5" stroke="none" stroke-width="0" fill="#ECECFF" style=""/><path d="M-8.875 -19.5 C-3.427963930893317 -19.5, 2.0190721382133656 -19.5, 8.875 -19.5 M-8.875 -19.5 C-3.8896636141829832 -19.5, 1.0956727716340335 -19.5, 8.875 -19.5 M8.875 -19.5 C8.875 -19.5, 8.874999999999998 -19.5, 8.874999999999998 -19.5 M8.875 -19.5 C8.875 -19.5, 8.874999999999998 -19.5, 8.874999999999998 -19.5 M8.874999999999998 -19.5 C9.29018523546062 -19.486685817607814, 9.70537047092124 -19.473371635215628, 10.1243692896239 -19.45993515863156 M8.874999999999998 -19.5 C9.265404228371102 -19.48748049627187, 9.655808456742204 -19.474960992543743, 10.1243692896239 -19.45993515863156 M10.1243692896239 -19.45993515863156 C10.620165657631418 -19.412106279292246, 11.115962025638938 -19.36427739995293, 11.368604652847864 -19.3399052695533 M10.1243692896239 -19.45993515863156 C10.519360222361788 -19.421830858396433, 10.914351155099677 -19.383726558161307, 11.368604652847864 -19.3399052695533 M11.368604652847864 -19.3399052695533 C11.814727142519574 -19.267779645154757, 12.260849632191285 -19.195654020756212, 12.602593259676757 -19.140403561325776 M11.368604652847864 -19.3399052695533 C11.684648784654808 -19.2888097052816, 12.000692916461752 -19.237714141009903, 12.602593259676757 -19.140403561325776 M12.602593259676757 -19.140403561325776 C12.880367064233582 -19.077003503079155, 13.158140868790406 -19.013603444832537, 13.82126438623539 -18.862249829261074 M12.602593259676757 -19.140403561325776 C12.915713193961535 -19.068935979623802, 13.228833128246313 -18.99746839792183, 13.82126438623539 -18.862249829261074 M13.82126438623539 -18.862249829261074 C14.061852396173846 -18.790844570783577, 14.302440406112302 -18.719439312306076, 15.019610251460602 -18.50658706670804 M13.82126438623539 -18.862249829261074 C14.066418140672278 -18.789489481782525, 14.311571895109164 -18.71672913430397, 15.019610251460602 -18.50658706670804 M15.019610251460602 -18.50658706670804 C15.329285415996148 -18.392623743553116, 15.638960580531693 -18.278660420398197, 16.192706595147794 -18.074876768247425 M15.019610251460602 -18.50658706670804 C15.468880139233706 -18.34125159500222, 15.91815002700681 -18.1759161232964, 16.192706595147794 -18.074876768247425 M16.192706595147794 -18.074876768247425 C16.464128524963108 -17.954726331363663, 16.735550454778426 -17.834575894479904, 17.33573291279238 -17.568892924097174 M16.192706595147794 -18.074876768247425 C16.513333562937994 -17.932944720667773, 16.833960530728195 -17.791012673088122, 17.33573291279238 -17.568892924097174 M17.33573291279238 -17.568892924097174 C17.59842734814319 -17.431845405438473, 17.861121783494003 -17.294797886779772, 18.443992264076783 -16.990714730406097 M17.33573291279238 -17.568892924097174 C17.7762000221906 -17.339101515256772, 18.21666713158882 -17.10931010641637, 18.443992264076783 -16.990714730406097 M18.443992264076783 -16.990714730406097 C18.760742938826944 -16.79869860993897, 19.0774936135771 -16.60668248947184, 19.512930573605697 -16.342718045390892 M18.443992264076783 -16.990714730406097 C18.86620046502478 -16.734769637820627, 19.28840866597277 -16.478824545235156, 19.512930573605697 -16.342718045390892 M19.512930573605697 -16.342718045390892 C19.731742918877277 -16.1900840255632, 19.950555264148857 -16.037450005735508, 20.538155344578712 -15.627565626425154 M19.512930573605697 -16.342718045390892 C19.860458682137203 -16.10029748112866, 20.20798679066871 -15.85787691686643, 20.538155344578712 -15.627565626425154 M20.538155344578712 -15.627565626425154 C20.746291761326926 -15.461582372811115, 20.95442817807514 -15.295599119197075, 21.51545370850187 -14.848196188198123 M20.538155344578712 -15.627565626425154 C20.820164348520546 -15.402670950356308, 21.10217335246238 -15.177776274287464, 21.51545370850187 -14.848196188198123 M21.51545370850187 -14.848196188198123 C21.736189379620317 -14.647729892034167, 21.95692505073876 -14.447263595870213, 22.440809736767985 -14.007812326905688 M21.51545370850187 -14.848196188198123 C21.715924571196545 -14.666133854867185, 21.916395433891225 -14.484071521536247, 22.440809736767985 -14.007812326905688 M22.440809736767985 -14.007812326905688 C22.72944498541437 -13.70977273528367, 23.018080234060758 -13.41173314366165, 23.310420942968648 -13.10986736009568 M22.440809736767985 -14.007812326905688 C22.640335856175984 -13.801785227217872, 22.839861975583986 -13.595758127530056, 23.310420942968648 -13.10986736009568 M23.310420942968648 -13.10986736009568 C23.630187546925526 -12.734251311852718, 23.94995415088241 -12.358635263609756, 24.120713908126582 -12.158051136245305 M23.310420942968648 -13.10986736009568 C23.48570918467956 -12.903963817198534, 23.660997426390473 -12.698060274301389, 24.120713908126582 -12.158051136245305 M24.120713908126582 -12.158051136245305 C24.29457436136702 -11.92509396791625, 24.468434814607452 -11.692136799587194, 24.868358964640635 -11.156274872382312 M24.120713908126582 -12.158051136245305 C24.349006077347486 -11.85216042733376, 24.57729824656839 -11.546269718422218, 24.868358964640635 -11.156274872382312 M24.868358964640635 -11.156274872382312 C25.05193909523661 -10.87424649361944, 25.23551922583258 -10.592218114856566, 25.550283878604247 -10.108655082055241 M24.868358964640635 -11.156274872382312 C25.12528202390821 -10.761572059845903, 25.382205083175783 -10.366869247309497, 25.550283878604247 -10.108655082055241 M25.550283878604247 -10.108655082055241 C25.74398229937926 -9.764723921877223, 25.937680720154273 -9.420792761699204, 26.1636864742735 -9.019496659696287 M25.550283878604247 -10.108655082055241 C25.677721188173 -9.882377234489024, 25.805158497741747 -9.656099386922804, 26.1636864742735 -9.019496659696287 M26.1636864742735 -9.019496659696287 C26.380587364451983 -8.569097320305078, 26.59748825463047 -8.118697980913868, 26.70604614880834 -7.893275190886684 M26.1636864742735 -9.019496659696287 C26.286878008514655 -8.763686802967953, 26.410069542755814 -8.507876946239618, 26.70604614880834 -7.893275190886684 M26.70604614880834 -7.893275190886684 C26.840610985106174 -7.560897443596918, 26.975175821404004 -7.228519696307152, 27.175134229970325 -6.734618561215508 M26.70604614880834 -7.893275190886684 C26.810667491283326 -7.634858452257423, 26.915288833758307 -7.376441713628163, 27.175134229970325 -6.734618561215508 M27.175134229970325 -6.734618561215508 C27.322763440597026 -6.289982900328319, 27.470392651223722 -5.84534723944113, 27.56902313421488 -5.548287939305138 M27.175134229970325 -6.734618561215508 C27.27497336659752 -6.433918988900579, 27.374812503224714 -6.13321941658565, 27.56902313421488 -5.548287939305138 M27.56902313421488 -5.548287939305138 C27.648569257291715 -5.244944096505351, 27.728115380368546 -4.941600253705563, 27.88609428754556 -4.339158212148133 M27.56902313421488 -5.548287939305138 C27.69064839795541 -5.084478095939748, 27.81227366169594 -4.620668252574359, 27.88609428754556 -4.339158212148133 M27.88609428754556 -4.339158212148133 C27.97772312266317 -3.8686635095803665, 28.069351957780782 -3.3981688070126, 28.125044776581777 -3.1121979531509023 M27.88609428754556 -4.339158212148133 C27.967339344555683 -3.9219820155500336, 28.048584401565805 -3.5048058189519335, 28.125044776581777 -3.1121979531509023 M28.125044776581777 -3.1121979531509023 C28.172750212209515 -2.742204014925981, 28.220455647837248 -2.3722100767010597, 28.284892702509367 -1.872449005199798 M28.125044776581777 -3.1121979531509023 C28.177071717005536 -2.708687277105671, 28.229098657429294 -2.3051766010604395, 28.284892702509367 -1.872449005199798 M28.284892702509367 -1.872449005199798 C28.301943830332476 -1.6068639259322293, 28.31899495815558 -1.3412788466646606, 28.364981215913414 -0.6250057626472757 M28.284892702509367 -1.872449005199798 C28.309121868746487 -1.4950601836256598, 28.333351034983608 -1.1176713620515217, 28.364981215913414 -0.6250057626472757 M28.364981215913414 -0.6250057626472757 C28.364981215913414 -0.26606613637112586, 28.364981215913414 0.09287348990502398, 28.364981215913414 0.625005762647271 M28.364981215913414 -0.6250057626472757 C28.364981215913414 -0.1387122475656843, 28.364981215913414 0.3475812675159071, 28.364981215913414 0.625005762647271 M28.364981215913414 0.625005762647271 C28.34584332638734 0.9230938398422851, 28.326705436861264 1.221181917037299, 28.284892702509367 1.8724490051997846 M28.364981215913414 0.625005762647271 C28.336870178599774 1.062857859628142, 28.30875914128613 1.500709956609013, 28.284892702509367 1.8724490051997846 M28.284892702509367 1.8724490051997846 C28.25128050661768 2.133138559056902, 28.217668310725987 2.3938281129140186, 28.125044776581777 3.1121979531508885 M28.284892702509367 1.8724490051997846 C28.25205169532463 2.127157371734191, 28.2192106881399 2.3818657382685977, 28.125044776581777 3.1121979531508885 M28.125044776581777 3.1121979531508885 C28.04392846390365 3.528713074814316, 27.962812151225524 3.9452281964777427, 27.88609428754556 4.339158212148129 M28.125044776581777 3.1121979531508885 C28.062460175174845 3.4335566541152973, 27.999875573767913 3.754915355079706, 27.88609428754556 4.339158212148129 M27.88609428754556 4.339158212148129 C27.76906499671669 4.785441618894099, 27.652035705887823 5.23172502564007, 27.569023134214884 5.548287939305125 M27.88609428754556 4.339158212148129 C27.78926249172857 4.708419816764087, 27.692430695911582 5.077681421380046, 27.569023134214884 5.548287939305125 M27.569023134214884 5.548287939305125 C27.42879149267558 5.970643300743652, 27.288559851136277 6.39299866218218, 27.17513422997033 6.734618561215495 M27.569023134214884 5.548287939305125 C27.47785142167439 5.8228826112374055, 27.386679709133894 6.0974772831696855, 27.17513422997033 6.734618561215495 M27.17513422997033 6.734618561215495 C27.0584499241016 7.0228310526488436, 26.941765618232868 7.311043544082193, 26.706046148808344 7.893275190886679 M27.17513422997033 6.734618561215495 C27.05334848643425 7.035431702316788, 26.931562742898166 7.336244843418081, 26.706046148808344 7.893275190886679 M26.706046148808344 7.893275190886679 C26.582719684229655 8.149365233347943, 26.45939321965097 8.405455275809208, 26.163686474273504 9.019496659696284 M26.706046148808344 7.893275190886679 C26.49008543729545 8.341722229162196, 26.27412472578255 8.790169267437712, 26.163686474273504 9.019496659696284 M26.163686474273504 9.019496659696284 C25.954774498433927 9.390441027430931, 25.745862522594354 9.76138539516558, 25.55028387860425 10.108655082055236 M26.163686474273504 9.019496659696284 C26.0088908791644 9.294351913566212, 25.854095284055298 9.56920716743614, 25.55028387860425 10.108655082055236 M25.55028387860425 10.108655082055236 C25.353307483557842 10.411263720414667, 25.156331088511433 10.713872358774097, 24.86835896464064 11.156274872382301 M25.55028387860425 10.108655082055236 C25.354774498925114 10.409009990861753, 25.159265119245976 10.709364899668271, 24.86835896464064 11.156274872382301 M24.86835896464064 11.156274872382301 C24.622648177227955 11.485504942802073, 24.376937389815264 11.814735013221846, 24.120713908126582 12.158051136245302 M24.86835896464064 11.156274872382301 C24.5958765572852 11.521376474580611, 24.32339414992976 11.886478076778921, 24.120713908126582 12.158051136245302 M24.120713908126582 12.158051136245302 C23.806166582978975 12.527536322613518, 23.491619257831367 12.897021508981734, 23.31042094296866 13.10986736009567 M24.120713908126582 12.158051136245302 C23.92936532724008 12.382820067397285, 23.73801674635358 12.607588998549266, 23.31042094296866 13.10986736009567 M23.31042094296866 13.10986736009567 C23.129416049113694 13.29676977377908, 22.948411155258732 13.483672187462487, 22.44080973676799 14.007812326905684 M23.31042094296866 13.10986736009567 C23.085024022115636 13.342608186307771, 22.859627101262618 13.575349012519872, 22.44080973676799 14.007812326905684 M22.44080973676799 14.007812326905684 C22.209584295465444 14.21780515480673, 21.9783588541629 14.427797982707773, 21.515453708501887 14.848196188198111 M22.44080973676799 14.007812326905684 C22.129984079180836 14.290095965130098, 21.819158421593688 14.57237960335451, 21.515453708501887 14.848196188198111 M21.515453708501887 14.848196188198111 C21.174210080156733 15.12032890092905, 20.832966451811576 15.392461613659988, 20.538155344578715 15.627565626425152 M21.515453708501887 14.848196188198111 C21.13874650186645 15.148610160890096, 20.762039295231016 15.449024133582082, 20.538155344578715 15.627565626425152 M20.538155344578715 15.627565626425152 C20.207537034317227 15.85819064742759, 19.876918724055738 16.088815668430026, 19.512930573605708 16.34271804539089 M20.538155344578715 15.627565626425152 C20.314235494602006 15.78376242043483, 20.090315644625296 15.939959214444507, 19.512930573605708 16.34271804539089 M19.512930573605708 16.34271804539089 C19.25124910635261 16.501350888650713, 18.989567639099512 16.659983731910536, 18.443992264076787 16.990714730406093 M19.512930573605708 16.34271804539089 C19.224723953240453 16.517430592346404, 18.936517332875198 16.69214313930192, 18.443992264076787 16.990714730406093 M18.443992264076787 16.990714730406093 C18.11280929924246 17.16349267102735, 17.78162633440813 17.336270611648605, 17.335732912792388 17.56889292409717 M18.443992264076787 16.990714730406093 C18.106009147268093 17.167040305956668, 17.768026030459403 17.343365881507246, 17.335732912792388 17.56889292409717 M17.335732912792388 17.56889292409717 C17.079705188819226 17.682228802707503, 16.823677464846064 17.79556468131783, 16.192706595147804 18.07487676824742 M17.335732912792388 17.56889292409717 C17.039345298516817 17.70009492891077, 16.742957684241244 17.83129693372437, 16.192706595147804 18.07487676824742 M16.192706595147804 18.07487676824742 C15.743381379772405 18.240232601022328, 15.294056164397006 18.405588433797234, 15.019610251460616 18.506587066708033 M16.192706595147804 18.07487676824742 C15.79977176113325 18.219480419414566, 15.406836927118698 18.364084070581708, 15.019610251460616 18.506587066708033 M15.019610251460616 18.506587066708033 C14.730662237373213 18.5923453205701, 14.441714223285809 18.678103574432164, 13.821264386235413 18.86224982926107 M15.019610251460616 18.506587066708033 C14.637363773880152 18.62003581480121, 14.255117296299687 18.73348456289439, 13.821264386235413 18.86224982926107 M13.821264386235413 18.86224982926107 C13.423333476635813 18.953074962635316, 13.025402567036215 19.04390009600956, 12.602593259676766 19.140403561325773 M13.821264386235413 18.86224982926107 C13.387939958296345 18.961153302232006, 12.954615530357277 19.060056775202945, 12.602593259676766 19.140403561325773 M12.602593259676766 19.140403561325773 C12.226845709582483 19.201151511259244, 11.851098159488199 19.26189946119272, 11.368604652847878 19.3399052695533 M12.602593259676766 19.140403561325773 C12.339822594795347 19.18288628460686, 12.077051929913926 19.22536900788795, 11.368604652847878 19.3399052695533 M11.368604652847878 19.3399052695533 C11.051412994796085 19.370504367326774, 10.734221336744291 19.40110346510025, 10.1243692896239 19.45993515863156 M11.368604652847878 19.3399052695533 C10.920052989203715 19.383176509082748, 10.47150132555955 19.4264477486122, 10.1243692896239 19.45993515863156 M10.1243692896239 19.45993515863156 C9.710793508468978 19.473197728956773, 9.297217727314058 19.48646029928199, 8.875000000000004 19.5 M10.1243692896239 19.45993515863156 C9.697814327851674 19.47361394601673, 9.27125936607945 19.487292733401897, 8.875000000000004 19.5 M8.875000000000004 19.5 C8.875000000000002 19.5, 8.875000000000002 19.5, 8.875 19.5 M8.875000000000004 19.5 C8.875000000000002 19.5, 8.875000000000002 19.5, 8.875 19.5 M8.875 19.5 C4.155512110462986 19.5, -0.5639757790740276 19.5, -8.874999999999996 19.5 M8.875 19.5 C2.0697252455076347 19.5, -4.735549508984731 19.5, -8.874999999999996 19.5 M-8.874999999999996 19.5 C-9.251703657075643 19.487919846926772, -9.628407314151287 19.475839693853544, -10.124369289623893 19.45993515863156 M-8.874999999999996 19.5 C-9.141447266555787 19.491455554769697, -9.407894533111579 19.482911109539398, -10.124369289623893 19.45993515863156 M-10.124369289623893 19.45993515863156 C-10.483559105512791 19.425284549081713, -10.84274892140169 19.390633939531867, -11.368604652847871 19.3399052695533 M-10.124369289623893 19.45993515863156 C-10.56787283910742 19.41715090460394, -11.011376388590945 19.37436665057632, -11.368604652847871 19.3399052695533 M-11.368604652847871 19.3399052695533 C-11.733743915999115 19.28087238518428, -12.098883179150361 19.221839500815264, -12.602593259676759 19.140403561325773 M-11.368604652847871 19.3399052695533 C-11.84894201437013 19.262248050014254, -12.329279375892389 19.184590830475205, -12.602593259676759 19.140403561325773 M-12.602593259676759 19.140403561325773 C-13.03481451252028 19.041751880871505, -13.467035765363798 18.943100200417238, -13.821264386235388 18.862249829261074 M-12.602593259676759 19.140403561325773 C-12.989498503969447 19.05209496410864, -13.376403748262137 18.963786366891508, -13.821264386235388 18.862249829261074 M-13.821264386235388 18.862249829261074 C-14.123636758628002 18.77250729631992, -14.426009131020615 18.682764763378763, -15.019610251460593 18.506587066708043 M-13.821264386235388 18.862249829261074 C-14.083200534699776 18.784508555327744, -14.345136683164164 18.706767281394416, -15.019610251460593 18.506587066708043 M-15.019610251460593 18.506587066708043 C-15.399555355164788 18.36676375637086, -15.77950045886898 18.22694044603368, -16.192706595147797 18.074876768247425 M-15.019610251460593 18.506587066708043 C-15.304891103740921 18.40160107596159, -15.590171956021251 18.29661508521514, -16.192706595147797 18.074876768247425 M-16.192706595147797 18.074876768247425 C-16.468452745399603 17.95281212724987, -16.74419889565141 17.830747486252317, -17.33573291279238 17.568892924097174 M-16.192706595147797 18.074876768247425 C-16.600980306096133 17.894146107419925, -17.00925401704447 17.71341544659243, -17.33573291279238 17.568892924097174 M-17.33573291279238 17.568892924097174 C-17.6211479848068 17.41999206384433, -17.906563056821224 17.271091203591485, -18.44399226407678 16.990714730406097 M-17.33573291279238 17.568892924097174 C-17.68779911241355 17.385220213263974, -18.03986531203472 17.20154750243077, -18.44399226407678 16.990714730406097 M-18.44399226407678 16.990714730406097 C-18.75656340919053 16.801232265366203, -19.069134554304277 16.61174980032631, -19.512930573605686 16.3427180453909 M-18.44399226407678 16.990714730406097 C-18.736451555931666 16.813424189002095, -19.028910847786555 16.63613364759809, -19.512930573605686 16.3427180453909 M-19.512930573605686 16.3427180453909 C-19.803442828936593 16.140069272144903, -20.0939550842675 15.937420498898907, -20.538155344578712 15.627565626425156 M-19.512930573605686 16.3427180453909 C-19.90066619621892 16.072250459860488, -20.288401818832156 15.801782874330076, -20.538155344578712 15.627565626425156 M-20.538155344578712 15.627565626425156 C-20.737380204369593 15.4686891023381, -20.936605064160474 15.309812578251043, -21.51545370850187 14.848196188198125 M-20.538155344578712 15.627565626425156 C-20.892788495276072 15.344755125928488, -21.24742164597343 15.06194462543182, -21.51545370850187 14.848196188198125 M-21.51545370850187 14.848196188198125 C-21.814572446765098 14.576544464355587, -22.11369118502833 14.304892740513047, -22.440809736767974 14.007812326905697 M-21.51545370850187 14.848196188198125 C-21.863046707333606 14.532521423465921, -22.210639706165345 14.216846658733715, -22.440809736767974 14.007812326905697 M-22.440809736767974 14.007812326905697 C-22.751865939613182 13.686621259278823, -23.062922142458387 13.36543019165195, -23.310420942968655 13.109867360095677 M-22.440809736767974 14.007812326905697 C-22.68478235328249 13.755890569830127, -22.92875496979701 13.503968812754556, -23.310420942968655 13.109867360095677 M-23.310420942968655 13.109867360095677 C-23.612898371514127 12.754560161072902, -23.915375800059596 12.399252962050127, -24.12071390812658 12.158051136245307 M-23.310420942968655 13.109867360095677 C-23.518307302104652 12.865672213585597, -23.726193661240647 12.621477067075517, -24.12071390812658 12.158051136245307 M-24.12071390812658 12.158051136245307 C-24.280562391152497 11.943868731486958, -24.440410874178415 11.72968632672861, -24.868358964640635 11.156274872382316 M-24.12071390812658 12.158051136245307 C-24.324171649837023 11.885436297734891, -24.527629391547467 11.612821459224474, -24.868358964640635 11.156274872382316 M-24.868358964640635 11.156274872382316 C-25.006193330005743 10.944524273472002, -25.14402769537085 10.732773674561688, -25.550283878604244 10.108655082055249 M-24.868358964640635 11.156274872382316 C-25.04091841106365 10.891177223977172, -25.213477857486662 10.626079575572028, -25.550283878604244 10.108655082055249 M-25.550283878604244 10.108655082055249 C-25.786996926410296 9.688347095880319, -26.023709974216345 9.26803910970539, -26.1636864742735 9.019496659696289 M-25.550283878604244 10.108655082055249 C-25.70355418883454 9.836508125939481, -25.85682449906484 9.564361169823714, -26.1636864742735 9.019496659696289 M-26.1636864742735 9.019496659696289 C-26.34594023967585 8.641042816232435, -26.5281940050782 8.262588972768581, -26.70604614880834 7.893275190886686 M-26.1636864742735 9.019496659696289 C-26.322732769659705 8.689233624281272, -26.48177906504591 8.358970588866255, -26.70604614880834 7.893275190886686 M-26.70604614880834 7.893275190886686 C-26.8781548083875 7.468163474231597, -27.050263467966662 7.043051757576507, -27.175134229970325 6.73461856121551 M-26.70604614880834 7.893275190886686 C-26.801482938234727 7.657544475858715, -26.89691972766111 7.4218137608307435, -27.175134229970325 6.73461856121551 M-27.175134229970325 6.73461856121551 C-27.304202937940293 6.34588417711589, -27.433271645910263 5.957149793016269, -27.56902313421488 5.5482879393051325 M-27.175134229970325 6.73461856121551 C-27.300556748470196 6.3568659188584205, -27.42597926697007 5.97911327650133, -27.56902313421488 5.5482879393051325 M-27.56902313421488 5.5482879393051325 C-27.67572623099161 5.141382785880787, -27.782429327768337 4.734477632456443, -27.886094287545557 4.339158212148136 M-27.56902313421488 5.5482879393051325 C-27.66939196494274 5.165538087613402, -27.7697607956706 4.782788235921671, -27.886094287545557 4.339158212148136 M-27.886094287545557 4.339158212148136 C-27.940997729318426 4.057240642490983, -27.995901171091297 3.7753230728338307, -28.125044776581777 3.112197953150904 M-27.886094287545557 4.339158212148136 C-27.9669173348319 3.924148946289851, -28.04774038211825 3.509139680431567, -28.125044776581777 3.112197953150904 M-28.125044776581777 3.112197953150904 C-28.16105141471211 2.832937578126992, -28.197058052842436 2.5536772031030797, -28.284892702509364 1.872449005199809 M-28.125044776581777 3.112197953150904 C-28.166910486685655 2.7874957729047773, -28.208776196789533 2.4627935926586506, -28.284892702509364 1.872449005199809 M-28.284892702509364 1.872449005199809 C-28.304404599487242 1.5685354600495895, -28.32391649646512 1.26462191489937, -28.364981215913414 0.6250057626472781 M-28.284892702509364 1.872449005199809 C-28.31439162431407 1.4129794869904102, -28.343890546118775 0.9535099687810116, -28.364981215913414 0.6250057626472781 M-28.364981215913414 0.6250057626472781 C-28.364981215913414 0.2807753035890703, -28.364981215913414 -0.06345515546913749, -28.364981215913414 -0.6250057626472687 M-28.364981215913414 0.6250057626472781 C-28.364981215913414 0.3517272084875332, -28.364981215913414 0.07844865432778825, -28.364981215913414 -0.6250057626472687 M-28.364981215913414 -0.6250057626472687 C-28.336334267269855 -1.0712051111714627, -28.307687318626297 -1.5174044596956566, -28.284892702509367 -1.8724490051997822 M-28.364981215913414 -0.6250057626472687 C-28.345772248757974 -0.9242009312924646, -28.326563281602535 -1.2233960999376605, -28.284892702509367 -1.8724490051997822 M-28.284892702509367 -1.8724490051997822 C-28.239310086166746 -2.2259787762474508, -28.193727469824122 -2.57950854729512, -28.125044776581777 -3.112197953150895 M-28.284892702509367 -1.8724490051997822 C-28.23325767960426 -2.2729200463632253, -28.18162265669915 -2.6733910875266687, -28.125044776581777 -3.112197953150895 M-28.125044776581777 -3.112197953150895 C-28.065782815364006 -3.41649559898421, -28.006520854146235 -3.7207932448175245, -27.88609428754556 -4.339158212148126 M-28.125044776581777 -3.112197953150895 C-28.06636615450977 -3.413500275759486, -28.007687532437764 -3.7148025983680766, -27.88609428754556 -4.339158212148126 M-27.88609428754556 -4.339158212148126 C-27.787247480819328 -4.716103926672285, -27.688400674093092 -5.093049641196444, -27.569023134214884 -5.548287939305123 M-27.88609428754556 -4.339158212148126 C-27.795516330501282 -4.684571219092872, -27.704938373457 -5.029984226037618, -27.569023134214884 -5.548287939305123 M-27.569023134214884 -5.548287939305123 C-27.422069673986485 -5.990888347658839, -27.275116213758086 -6.4334887560125535, -27.175134229970332 -6.734618561215485 M-27.569023134214884 -5.548287939305123 C-27.456309442156144 -5.887763621298031, -27.343595750097403 -6.227239303290939, -27.175134229970332 -6.734618561215485 M-27.175134229970332 -6.734618561215485 C-26.995813889829186 -7.177543268287039, -26.81649354968804 -7.6204679753585935, -26.706046148808344 -7.893275190886676 M-27.175134229970332 -6.734618561215485 C-27.01856845495108 -7.121339052506373, -26.862002679931827 -7.508059543797263, -26.706046148808344 -7.893275190886676 M-26.706046148808344 -7.893275190886676 C-26.505298865028376 -8.310131220959562, -26.304551581248408 -8.726987251032448, -26.163686474273504 -9.019496659696282 M-26.706046148808344 -7.893275190886676 C-26.53513349766051 -8.248178967940058, -26.364220846512676 -8.60308274499344, -26.163686474273504 -9.019496659696282 M-26.163686474273504 -9.019496659696282 C-25.926074437818812 -9.441400891249348, -25.688462401364117 -9.863305122802412, -25.550283878604247 -10.108655082055243 M-26.163686474273504 -9.019496659696282 C-25.99273419907675 -9.3230397351031, -25.821781923879996 -9.626582810509916, -25.550283878604247 -10.108655082055243 M-25.550283878604247 -10.108655082055243 C-25.396680814518465 -10.344630636689002, -25.243077750432686 -10.580606191322762, -24.86835896464064 -11.156274872382308 M-25.550283878604247 -10.108655082055243 C-25.289420572432213 -10.509411171941348, -25.028557266260176 -10.910167261827452, -24.86835896464064 -11.156274872382308 M-24.86835896464064 -11.156274872382308 C-24.699972963484658 -11.381896773651043, -24.53158696232867 -11.607518674919778, -24.120713908126586 -12.158051136245302 M-24.86835896464064 -11.156274872382308 C-24.67197786249931 -11.419407658565238, -24.475596760357984 -11.682540444748168, -24.120713908126586 -12.158051136245302 M-24.120713908126586 -12.158051136245302 C-23.913909872661563 -12.400974923785494, -23.70710583719654 -12.643898711325686, -23.310420942968662 -13.10986736009567 M-24.120713908126586 -12.158051136245302 C-23.94415942832174 -12.365442074458574, -23.76760494851689 -12.572833012671847, -23.310420942968662 -13.10986736009567 M-23.310420942968662 -13.10986736009567 C-23.05218574498161 -13.376516403521348, -22.793950546994562 -13.643165446947027, -22.440809736767996 -14.007812326905677 M-23.310420942968662 -13.10986736009567 C-23.021372635758816 -13.408333468597199, -22.73232432854897 -13.706799577098728, -22.440809736767996 -14.007812326905677 M-22.440809736767996 -14.007812326905677 C-22.131776113500237 -14.288468486975846, -21.822742490232482 -14.569124647046014, -21.515453708501887 -14.848196188198107 M-22.440809736767996 -14.007812326905677 C-22.160763047328565 -14.2621433206252, -21.88071635788914 -14.516474314344721, -21.515453708501887 -14.848196188198107 M-21.515453708501887 -14.848196188198107 C-21.171235231563525 -15.122701263518085, -20.827016754625163 -15.39720633883806, -20.53815534457872 -15.627565626425149 M-21.515453708501887 -14.848196188198107 C-21.127177465567765 -15.15783615947331, -20.738901222633643 -15.467476130748516, -20.53815534457872 -15.627565626425149 M-20.53815534457872 -15.627565626425149 C-20.312455693967202 -15.785003932311339, -20.086756043355688 -15.942442238197527, -19.51293057360571 -16.342718045390885 M-20.53815534457872 -15.627565626425149 C-20.310496120766725 -15.786370845747436, -20.082836896954728 -15.945176065069724, -19.51293057360571 -16.342718045390885 M-19.51293057360571 -16.342718045390885 C-19.179155536707487 -16.545054434238427, -18.84538049980926 -16.74739082308597, -18.44399226407679 -16.99071473040609 M-19.51293057360571 -16.342718045390885 C-19.09166230377868 -16.59809334620718, -18.67039403395165 -16.85346864702347, -18.44399226407679 -16.99071473040609 M-18.44399226407679 -16.99071473040609 C-18.143848403501647 -17.147299590216825, -17.843704542926506 -17.303884450027557, -17.335732912792388 -17.56889292409717 M-18.44399226407679 -16.99071473040609 C-18.062232306402603 -17.18987865579579, -17.680472348728415 -17.389042581185493, -17.335732912792388 -17.56889292409717 M-17.335732912792388 -17.56889292409717 C-16.955155118628507 -17.737363424134372, -16.574577324464624 -17.90583392417157, -16.192706595147804 -18.07487676824742 M-17.335732912792388 -17.56889292409717 C-16.975374400852278 -17.728412947677604, -16.61501588891217 -17.88793297125804, -16.192706595147804 -18.07487676824742 M-16.192706595147804 -18.07487676824742 C-15.72598583913832 -18.246634320778284, -15.259265083128833 -18.41839187330915, -15.019610251460618 -18.506587066708033 M-16.192706595147804 -18.07487676824742 C-15.886882702695225 -18.187422787675043, -15.581058810242643 -18.299968807102662, -15.019610251460618 -18.506587066708033 M-15.019610251460618 -18.506587066708033 C-14.602102970961623 -18.630501036019698, -14.18459569046263 -18.754415005331364, -13.821264386235413 -18.862249829261067 M-15.019610251460618 -18.506587066708033 C-14.743717125849248 -18.588470698196918, -14.467824000237876 -18.670354329685804, -13.821264386235413 -18.862249829261067 M-13.821264386235413 -18.862249829261067 C-13.35771026977908 -18.968053031368918, -12.894156153322747 -19.073856233476768, -12.602593259676768 -19.140403561325773 M-13.821264386235413 -18.862249829261067 C-13.573961568540156 -18.91869508359831, -13.3266587508449 -18.975140337935546, -12.602593259676768 -19.140403561325773 M-12.602593259676768 -19.140403561325773 C-12.113610602057493 -19.219458485292513, -11.624627944438219 -19.298513409259254, -11.36860465284788 -19.3399052695533 M-12.602593259676768 -19.140403561325773 C-12.200847767709204 -19.205354656884268, -11.79910227574164 -19.270305752442763, -11.36860465284788 -19.3399052695533 M-11.36860465284788 -19.3399052695533 C-11.087783140086955 -19.366995783152063, -10.80696162732603 -19.394086296750828, -10.124369289623903 -19.45993515863156 M-11.36860465284788 -19.3399052695533 C-11.009452913127527 -19.374552205940958, -10.650301173407176 -19.409199142328617, -10.124369289623903 -19.45993515863156 M-10.124369289623903 -19.45993515863156 C-9.695880087785838 -19.47367597333087, -9.267390885947771 -19.48741678803018, -8.875000000000005 -19.5 M-10.124369289623903 -19.45993515863156 C-9.724612307255997 -19.472754586976336, -9.324855324888091 -19.48557401532111, -8.875000000000005 -19.5 M-8.875000000000005 -19.5 C-8.875000000000004 -19.5, -8.875000000000002 -19.5, -8.875 -19.5 M-8.875000000000005 -19.5 C-8.875000000000004 -19.5, -8.875000000000002 -19.5, -8.875 -19.5" stroke="#9370DB" stroke-width="1.3" fill="none" stroke-dasharray="0 0" style=""/></g><g class="label" style="" transform="translate(-16, -12)"><rect/><foreignObject width="32" height="24"><div xmlns="http://www.w3.org/1999/xhtml" style="display: table-cell; white-space: nowrap; line-height: 1.5; max-width: 200px; text-align: center;"><span class="nodeLabel"><p>开始</p></span></div></foreignObject></g></g><g class="node default" id="my-svg-flowchart-B-1" data-look="classic" transform="translate(97.66666666666666, 105.5)"><polygon points="-19.5,0 111,0 130.5,-39 0,-39" class="label-container" transform="translate(-55.5,19.5)"/><g class="label" style="" transform="translate(-48, -12)"><rect/><foreignObject width="96" height="24"><div xmlns="http://www.w3.org/1999/xhtml" style="display: table-cell; white-space: nowrap; line-height: 1.5; max-width: 200px; text-align: center;"><span class="nodeLabel"><p>用户上传文件</p></span></div></foreignObject></g></g><g class="node default" id="my-svg-flowchart-C-2" data-look="classic" transform="translate(214.66666666666666, 251)"><polygon points="91,0 182,-91 91,-182 0,-91" class="label-container" transform="translate(-90.5, 91)"/><g class="label" style="" transform="translate(-64, -12)"><rect/><foreignObject width="128" height="24"><div xmlns="http://www.w3.org/1999/xhtml" style="display: table-cell; white-space: nowrap; line-height: 1.5; max-width: 200px; text-align: center;"><span class="nodeLabel"><p>文件格式是否支持</p></span></div></foreignObject></g></g><g class="node default" id="my-svg-flowchart-D-3" data-look="classic" transform="translate(103, 455.5)"><polygon points="-19.5,0 143,0 162.5,-39 0,-39" class="label-container" transform="translate(-71.5,19.5)"/><g class="label" style="" transform="translate(-64, -12)"><rect/><foreignObject width="128" height="24"><div xmlns="http://www.w3.org/1999/xhtml" style="display: table-cell; white-space: nowrap; line-height: 1.5; max-width: 200px; text-align: center;"><span class="nodeLabel"><p>提示用户重新上传</p></span></div></foreignObject></g></g><g class="node default" id="my-svg-flowchart-E-4" data-look="classic" transform="translate(308.5, 455.5)"><polygon points="0,0 143,0 143,-39 0,-39 0,0 -8,0 151,0 151,-39 -8,-39 -8,0" class="label-container" transform="translate(-71.5,19.5)"/><g class="label" style="" transform="translate(-64, -12)"><rect/><foreignObject width="128" height="24"><div xmlns="http://www.w3.org/1999/xhtml" style="display: table-cell; white-space: nowrap; line-height: 1.5; max-width: 200px; text-align: center;"><span class="nodeLabel"><p>调用文件解析模块</p></span></div></foreignObject></g></g></g><g class="edges edgePaths"><path d="M97.667,51L97.667,82" id="my-svg-L_A_B_0_0" class="edge-thickness-normal edge-pattern-solid edge-thickness-normal edge-pattern-solid flowchart-link" style=";" data-edge="true" data-et="edge" data-id="L_A_B_0_0" data-points="W3sieCI6OTcuNjY2NjY2NjY2NjY2NjYsInkiOjUxfSx7IngiOjk3LjY2NjY2NjY2NjY2NjY2LCJ5Ijo4Nn1d" data-look="classic" marker-end="url(#my-svg_flowchart-elk-pointEnd)"/><path d="M122.667,125L122.667,127.083C122.667,129.167,122.667,133.333,123.029,135.888C123.391,138.443,124.114,139.386,124.948,140.219C125.781,141.052,126.724,141.776,140.862,142.138C155,142.5,182.333,142.5,196.471,142.862C210.609,143.224,211.552,143.948,212.386,144.781C213.219,145.614,213.943,146.557,214.305,148.445C214.667,150.333,214.667,153.167,214.667,154.583L214.667,156" id="my-svg-L_B_C_0_0" class="edge-thickness-normal edge-pattern-solid edge-thickness-normal edge-pattern-solid flowchart-link" style=";" data-edge="true" data-et="edge" data-id="L_B_C_0_0" data-points="W3sieCI6MTIyLjY2NjY2NjY2NjY2NjY2LCJ5IjoxMjV9LHsieCI6MTIyLjY2NjY2NjY2NjY2NjY2LCJ5IjoxNDIuNX0seyJ4IjoyMTQuNjY2NjY2NjY2NjY2NjYsInkiOjE0Mi41fSx7IngiOjIxNC42NjY2NjY2NjY2NjY2NiwieSI6MTYwfV0=" data-look="classic" marker-end="url(#my-svg_flowchart-elk-pointEnd)"/><path d="M192.417,319.75L191.069,323.458C189.722,327.167,187.028,334.583,185.681,350.208C184.333,365.833,184.333,389.667,183.971,402.055C183.609,414.443,182.886,415.386,182.052,416.219C181.219,417.052,180.276,417.776,172.971,418.138C165.667,418.5,152,418.5,144.695,418.862C137.391,419.224,136.448,419.948,135.614,420.781C134.781,421.614,134.057,422.557,133.695,424.445C133.333,426.333,133.333,429.167,133.333,430.583L133.333,432" id="my-svg-L_C_D_0_0" class="edge-thickness-normal edge-pattern-solid edge-thickness-normal edge-pattern-solid flowchart-link" style=";" data-edge="true" data-et="edge" data-id="L_C_D_0_0" data-points="W3sieCI6MTkyLjQxNjY2NjY2NjY2NjY2LCJ5IjozMTkuNzQ5OTk5OTk5OTk5OX0seyJ4IjoxODQuMzMzMzMzMzMzMzMzMzEsInkiOjM0Mn0seyJ4IjoxODQuMzMzMzMzMzMzMzMzMzEsInkiOjQxOC41fSx7IngiOjEzMy4zMzMzMzMzMzMzMzMzMSwieSI6NDE4LjV9LHsieCI6MTMzLjMzMzMzMzMzMzMzMzMxLCJ5Ijo0MzZ9XQ==" data-look="classic" marker-end="url(#my-svg_flowchart-elk-pointEnd)"/><path d="M72.667,436L72.667,428.167C72.667,420.333,72.667,404.667,72.667,353.5C72.667,302.333,72.667,215.667,72.667,172.333L72.667,129" id="my-svg-L_D_B_0_0" class="edge-thickness-normal edge-pattern-dotted edge-thickness-normal edge-pattern-solid flowchart-link" style=";" data-edge="true" data-et="edge" data-id="L_D_B_0_0" data-points="W3sieCI6NzIuNjY2NjY2NjY2NjY2NjYsInkiOjQzNn0seyJ4Ijo3Mi42NjY2NjY2NjY2NjY2NiwieSI6Mzg5fSx7IngiOjcyLjY2NjY2NjY2NjY2NjY2LCJ5IjoxMjV9XQ==" data-look="classic" marker-end="url(#my-svg_flowchart-elk-pointEnd)"/><path d="M237.917,319.75L239.097,323.458C240.278,327.167,242.639,334.583,243.819,340.375C245,346.167,245,350.333,245.362,352.888C245.724,355.443,246.448,356.386,247.281,357.219C248.114,358.052,249.057,358.776,258.445,359.138C267.833,359.5,285.667,359.5,295.055,359.862C304.443,360.224,305.386,360.948,306.219,361.781C307.052,362.614,307.776,363.557,308.138,375.279C308.5,387,308.5,409.5,308.5,420.75L308.5,432" id="my-svg-L_C_E_0_0" class="edge-thickness-normal edge-pattern-solid edge-thickness-normal edge-pattern-solid flowchart-link" style=";" data-edge="true" data-et="edge" data-id="L_C_E_0_0" data-points="W3sieCI6MjM3LjkxNjY2NjY2NjY2NjY5LCJ5IjozMTkuNzQ5OTk5OTk5OTk5OTR9LHsieCI6MjQ1LCJ5IjozNDJ9LHsieCI6MjQ1LCJ5IjozNTkuNX0seyJ4IjozMDguNSwieSI6MzU5LjV9LHsieCI6MzA4LjUsInkiOjQzNn1d" data-look="classic" marker-end="url(#my-svg_flowchart-elk-pointEnd)"/></g><g class="edgeLabels"><g class="edgeLabel"><g class="label" data-id="L_A_B_0_0" transform="translate(0, 0)"><foreignObject width="0" height="0"><div xmlns="http://www.w3.org/1999/xhtml" class="labelBkg" style="display: table-cell; white-space: nowrap; line-height: 1.5; max-width: 200px; text-align: center;"><span class="edgeLabel"></span></div></foreignObject></g></g><g class="edgeLabel"><g class="label" data-id="L_B_C_0_0" transform="translate(0, 0)"><foreignObject width="0" height="0"><div xmlns="http://www.w3.org/1999/xhtml" class="labelBkg" style="display: table-cell; white-space: nowrap; line-height: 1.5; max-width: 200px; text-align: center;"><span class="edgeLabel"></span></div></foreignObject></g></g><g class="edgeLabel" transform="translate(184.33333333333331, 389)"><g class="label" data-id="L_C_D_0_0" transform="translate(-24, -12)"><foreignObject width="48" height="24"><div xmlns="http://www.w3.org/1999/xhtml" class="labelBkg" style="display: table-cell; white-space: nowrap; line-height: 1.5; max-width: 200px; text-align: center;"><span class="edgeLabel"><p>不支持</p></span></div></foreignObject></g></g><g class="edgeLabel" transform="translate(72.66666666666666, 251)"><g class="label" data-id="L_D_B_0_0" transform="translate(-16, -12)"><foreignObject width="32" height="24"><div xmlns="http://www.w3.org/1999/xhtml" class="labelBkg" style="display: table-cell; white-space: nowrap; line-height: 1.5; max-width: 200px; text-align: center;"><span class="edgeLabel"><p>返回</p></span></div></foreignObject></g></g><g class="edgeLabel" transform="translate(308.5, 389)"><g class="label" data-id="L_C_E_0_0" transform="translate(-16, -12)"><foreignObject width="32" height="24"><div xmlns="http://www.w3.org/1999/xhtml" class="labelBkg" style="display: table-cell; white-space: nowrap; line-height: 1.5; max-width: 200px; text-align: center;"><span class="edgeLabel"><p>支持</p></span></div></foreignObject></g></g></g></svg>